<svg version="1.1" class="highcharts-root" style="font-family:&quot;Lucida Grande&quot;, &quot;Lucida Sans Unicode&quot;, Arial, Helvetica, sans-serif;font-size:12px;" xmlns="http://www.w3.org/2000/svg" width="930" height="350" viewBox="0 0 930 350"><desc>Created with Highcharts 9.3.0</desc><defs><clipPath id="highcharts-cl5pkb4-1-"><rect x="0" y="0" width="854" height="264" fill="none"></rect></clipPath><clipPath id="highcharts-cl5pkb4-11-"><rect x="0" y="0" width="854" height="264" fill="none"></rect></clipPath></defs><rect fill="#ffffff" class="highcharts-background" x="0" y="0" width="930" height="350" rx="0" ry="0"></rect><rect fill="none" class="highcharts-plot-background" x="66" y="10" width="854" height="264"></rect><g class="highcharts-pane-group" data-z-index="0"></g><g class="highcharts-grid highcharts-xaxis-grid" data-z-index="1"><path fill="none" stroke-dasharray="none" data-z-index="1" class="highcharts-grid-line" d="M 88.5 10 L 88.5 274" opacity="1"></path><path fill="none" stroke-dasharray="none" data-z-index="1" class="highcharts-grid-line" d="M 332.5 10 L 332.5 274" opacity="1"></path><path fill="none" stroke-dasharray="none" data-z-index="1" class="highcharts-grid-line" d="M 577.5 10 L 577.5 274" opacity="1"></path><path fill="none" stroke-dasharray="none" data-z-index="1" class="highcharts-grid-line" d="M 821.5 10 L 821.5 274" opacity="1"></path><path fill="none" stroke-dasharray="none" data-z-index="1" class="highcharts-grid-line" d="M 209.5 10 L 209.5 274" opacity="1"></path><path fill="none" stroke-dasharray="none" data-z-index="1" class="highcharts-grid-line" d="M 454.5 10 L 454.5 274" opacity="1"></path><path fill="none" stroke-dasharray="none" data-z-index="1" class="highcharts-grid-line" d="M 698.5 10 L 698.5 274" opacity="1"></path></g><g class="highcharts-grid highcharts-yaxis-grid" data-z-index="1"><path fill="none" stroke="#e6e6e6" stroke-width="1" stroke-dasharray="none" data-z-index="1" class="highcharts-grid-line" d="M 66 274.5 L 920 274.5" opacity="1"></path><path fill="none" stroke="#e6e6e6" stroke-width="1" stroke-dasharray="none" data-z-index="1" class="highcharts-grid-line" d="M 66 221.5 L 920 221.5" opacity="1"></path><path fill="none" stroke="#e6e6e6" stroke-width="1" stroke-dasharray="none" data-z-index="1" class="highcharts-grid-line" d="M 66 168.5 L 920 168.5" opacity="1"></path><path fill="none" stroke="#e6e6e6" stroke-width="1" stroke-dasharray="none" data-z-index="1" class="highcharts-grid-line" d="M 66 116.5 L 920 116.5" opacity="1"></path><path fill="none" stroke="#e6e6e6" stroke-width="1" stroke-dasharray="none" data-z-index="1" class="highcharts-grid-line" d="M 66 63.5 L 920 63.5" opacity="1"></path><path fill="none" stroke="#e6e6e6" stroke-width="1" stroke-dasharray="none" data-z-index="1" class="highcharts-grid-line" d="M 66 9.5 L 920 9.5" opacity="1"></path></g><rect fill="none" class="highcharts-plot-border" data-z-index="1" x="66" y="10" width="854" height="264"></rect><g class="highcharts-axis highcharts-xaxis" data-z-index="2"><path fill="none" class="highcharts-tick" stroke="#ccd6eb" stroke-width="1" d="M 88.5 274 L 88.5 284" opacity="1"></path><path fill="none" class="highcharts-tick" stroke="#ccd6eb" stroke-width="1" d="M 332.5 274 L 332.5 284" opacity="1"></path><path fill="none" class="highcharts-tick" stroke="#ccd6eb" stroke-width="1" d="M 577.5 274 L 577.5 284" opacity="1"></path><path fill="none" class="highcharts-tick" stroke="#ccd6eb" stroke-width="1" d="M 821.5 274 L 821.5 284" opacity="1"></path><path fill="none" class="highcharts-tick" stroke="#ccd6eb" stroke-width="1" d="M 209.5 274 L 209.5 284" opacity="1"></path><path fill="none" class="highcharts-tick" stroke="#ccd6eb" stroke-width="1" d="M 454.5 274 L 454.5 284" opacity="1"></path><path fill="none" class="highcharts-tick" stroke="#ccd6eb" stroke-width="1" d="M 698.5 274 L 698.5 284" opacity="1"></path><path fill="none" class="highcharts-axis-line" stroke="#ccd6eb" stroke-width="1" data-z-index="7" d="M 66 274.5 L 920 274.5"></path></g><g class="highcharts-axis highcharts-yaxis" data-z-index="2"><text x="23.6015625" data-z-index="7" text-anchor="middle" transform="translate(0,0) rotate(270 23.6015625 142)" class="highcharts-axis-title" style="color:#666666;font-size:12px;fill:#666666;" y="142">MSE</text><path fill="none" class="highcharts-axis-line" data-z-index="7" d="M 66 10 L 66 274"></path></g><g class="highcharts-series-group" data-z-index="3"><g class="highcharts-series highcharts-series-0 highcharts-scatter-series highcharts-tracker" data-z-index="1" opacity="1" transform="translate(66,10) scale(1 1)" clip-path="url(#highcharts-cl5pkb4-11-)"></g><g class="highcharts-markers highcharts-series-0 highcharts-scatter-series highcharts-tracker" data-z-index="1" opacity="1" transform="translate(66,10) scale(1 1)" clip-path="none"><path fill="#ddd" d="M 189 24.287999999999954 A 0 0 0 1 1 189 24.287999999999954 Z" class="highcharts-halo highcharts-color-undefined tag-0" data-z-index="-1" fill-opacity="0.25" visibility="hidden"></path><path fill="#ddd" d="M 156 28.287999999999954 A 4 4 0 1 1 156.00399999933333 28.287998000000123 Z" opacity="1" class="highcharts-point tag-0" stroke-width="0.0000022905954178142895"></path><path fill="#ddd" d="M 156 26.439999999999998 A 4 4 0 1 1 156.00399999933333 26.439998000000166 Z" opacity="1" class="highcharts-point tag-0" stroke-width="0.000009869571931497845"></path><path fill="#ddd" d="M 364 196.192 A 4 4 0 1 1 364.00399999933336 196.19199800000018 Z" opacity="1" class="highcharts-point tag-0"></path><path fill="#ddd" d="M 488 202.792 A 4 4 0 1 1 488.00399999933336 202.79199800000018 Z" opacity="1" class="highcharts-point tag-0"></path><path fill="#ddd" d="M 582 200.94400000000002 A 4 4 0 1 1 582.0039999993334 200.9439980000002 Z" opacity="1" class="highcharts-point tag-0"></path><path fill="#ddd" d="M 694 203.32 A 4 4 0 1 1 694.0039999993334 203.31999800000017 Z" opacity="1" class="highcharts-point tag-0"></path><path fill="#ddd" d="M 741 202.264 A 4 4 0 1 1 741.0039999993334 202.26399800000019 Z" opacity="1" class="highcharts-point tag-0"></path><path fill="#ddd" d="M 741 187.48000000000002 A 4 4 0 1 1 741.0039999993334 187.4799980000002 Z" opacity="1" class="highcharts-point tag-0"></path><path fill="#ddd" d="M 843 195.4 A 4 4 0 1 1 843.0039999993334 195.39999800000018 Z" opacity="1" class="highcharts-point tag-0"></path></g><g class="highcharts-series highcharts-series-3 highcharts-line-series" data-z-index="2" opacity="1" transform="translate(66,10) scale(1 1)" clip-path="url(#highcharts-cl5pkb4-11-)"><path fill="none" d="M 10.997460536422 68.37600000000003 L 134.82766134215 173.184 L 359.06072766604 194.04 L 364.41554716035 200.64 L 667.63220102519 202.224" class="highcharts-graph" data-z-index="1" stroke="#21ccc7" stroke-width="2" stroke-linejoin="round" stroke-linecap="round"></path><path fill="none" d="M 10.997460536422 68.37600000000003 L 134.82766134215 173.184 L 359.06072766604 194.04 L 364.41554716035 200.64 L 667.63220102519 202.224" visibility="visible" data-z-index="2" class="highcharts-tracker-line" stroke-linecap="round" stroke-linejoin="round" stroke="rgba(192,192,192,0.0001)" stroke-width="22"></path></g><g class="highcharts-markers highcharts-series-3 highcharts-line-series highcharts-tracker" data-z-index="2" opacity="1" transform="translate(66,10) scale(1 1)" clip-path="none"><path fill="#21ccc7" d="M 13 68.37600000000003 A 0 0 0 1 1 13 68.37600000000003 Z" class="highcharts-halo highcharts-color-undefined tag-0" data-z-index="-1" fill-opacity="0.25" visibility="hidden"></path><path fill="#21ccc7" d="M 10 72.37600000000003 A 4 4 0 1 1 10.003999999333336 72.3759980000002 Z" opacity="1" class="highcharts-point tag-0" stroke-width="0.00017623853923027372"></path><path fill="#21ccc7" d="M 134 177.184 A 4 4 0 1 1 134.00399999933333 177.18399800000017 Z" opacity="1" class="highcharts-point tag-0" stroke-width="0.0006315216969912107"></path><path fill="#21ccc7" d="M 359 198.04 A 4 4 0 1 1 359.00399999933336 198.03999800000017 Z" opacity="1" class="highcharts-point tag-0"></path><path fill="#21ccc7" d="M 364 204.64 A 4 4 0 1 1 364.00399999933336 204.63999800000016 Z" opacity="1" class="highcharts-point tag-0"></path><path fill="#21ccc7" d="M 667 206.224 A 4 4 0 1 1 667.0039999993334 206.22399800000017 Z" opacity="1" class="highcharts-point tag-0"></path></g><g class="highcharts-series highcharts-series-1 highcharts-errorbar-series highcharts-tracker" data-z-index="3" opacity="1" transform="translate(66,10) scale(1 1)" clip-path="url(#highcharts-cl5pkb4-11-)"></g><g class="highcharts-markers highcharts-series-1 highcharts-errorbar-series" data-z-index="3" opacity="1" transform="translate(66,10) scale(1 1)" clip-path="none"></g><g class="highcharts-series highcharts-series-2 highcharts-errorbar-series highcharts-tracker" data-z-index="3" opacity="1" transform="translate(66,10) scale(1 1)" clip-path="url(#highcharts-cl5pkb4-11-)"></g><g class="highcharts-markers highcharts-series-2 highcharts-errorbar-series" data-z-index="3" opacity="1" transform="translate(66,10) scale(1 1)" clip-path="none"></g></g><g class="highcharts-data-labels highcharts-series-3 highcharts-line-series highcharts-tracker" data-z-index="3" opacity="1" transform="translate(66,10) scale(1 1)"><g class="highcharts-label highcharts-data-label highcharts-data-label-color-undefined" data-z-index="1" transform="translate(-5,46)"><text x="5" data-z-index="1" y="16" style="color:#4a4a4a;font-size:11px;font-weight:normal;fill:#4a4a4a;"><tspan class="highcharts-text-outline" fill="#FFFFFF" stroke="#FFFFFF" stroke-width="2px" stroke-linejoin="round" style="">Informer<tspan x="5" y="16">​</tspan></tspan>Informer</text></g><g class="highcharts-label highcharts-data-label highcharts-data-label-color-undefined" data-z-index="1" transform="translate(112,151)"><text x="5" data-z-index="1" y="16" style="color:#4a4a4a;font-size:11px;font-weight:normal;fill:#4a4a4a;"><tspan class="highcharts-text-outline" fill="#FFFFFF" stroke="#FFFFFF" stroke-width="2px" stroke-linejoin="round" style="">SCINet<tspan x="5" y="16">​</tspan></tspan>SCINet</text></g><g class="highcharts-label highcharts-data-label highcharts-data-label-color-undefined" data-z-index="1" transform="translate(342,172)"><text x="5" data-z-index="1" y="16" style="color:#4a4a4a;font-size:11px;font-weight:normal;fill:#4a4a4a;"><tspan class="highcharts-text-outline" fill="#FFFFFF" stroke="#FFFFFF" stroke-width="2px" stroke-linejoin="round" style="">FiLM<tspan x="5" y="16">​</tspan></tspan>FiLM</text></g><g class="highcharts-label highcharts-data-label highcharts-data-label-color-undefined highcharts-data-label-hidden" data-z-index="1" transform="translate(339,179)" opacity="0" style="pointer-events:none;"><text x="5" data-z-index="1" y="16" style="color:#4a4a4a;font-size:11px;font-weight:normal;fill:#4a4a4a;"><tspan class="highcharts-text-outline" fill="#FFFFFF" stroke="#FFFFFF" stroke-width="2px" stroke-linejoin="round" style="">NLinear<tspan x="5" y="16">​</tspan></tspan>NLinear</text></g><g class="highcharts-label highcharts-data-label highcharts-data-label-color-undefined" data-z-index="1" transform="translate(642,180)"><text x="5" data-z-index="1" y="16" style="color:#4a4a4a;font-size:11px;font-weight:normal;fill:#4a4a4a;"><tspan class="highcharts-text-outline" fill="#FFFFFF" stroke="#FFFFFF" stroke-width="2px" stroke-linejoin="round" style="">SegRNN<tspan x="5" y="16">​</tspan></tspan>SegRNN</text></g></g><g class="highcharts-exporting-group" data-z-index="3"><g class="highcharts-no-tooltip highcharts-button highcharts-contextbutton highcharts-button-normal" stroke-linecap="round" style="cursor:pointer;" transform="translate(901,0)"><title>Chart context menu</title><rect fill="#ffffff" class="highcharts-button-box" x="0.5" y="0.5" width="24" height="22" rx="2" ry="2" stroke="none" stroke-width="1"></rect><path fill="#666666" d="M 6 6.5 L 20 6.5 M 6 11.5 L 20 11.5 M 6 16.5 L 20 16.5" class="highcharts-button-symbol" data-z-index="1" stroke="#666666" stroke-width="3"></path><text x="0" data-z-index="1" y="15.5" style="color:#333333;font-weight:normal;fill:#333333;"></text></g></g><text x="465" text-anchor="middle" class="highcharts-title" data-z-index="4" style="color:#333333;font-size:18px;fill:#333333;" y="24"></text><text x="465" text-anchor="middle" class="highcharts-subtitle" data-z-index="4" style="color:#666666;fill:#666666;" y="24"></text><text x="10" text-anchor="start" class="highcharts-caption" data-z-index="4" style="color:#666666;fill:#666666;" y="347"></text><g class="highcharts-legend highcharts-no-tooltip" data-z-index="7" transform="translate(299,307)"><rect fill="#ffffff" class="highcharts-legend-box" rx="0" ry="0" x="0" y="0" width="331" height="28" visibility="visible"></rect><g data-z-index="1"><g><g class="highcharts-legend-item highcharts-scatter-series highcharts-color-undefined highcharts-series-0" data-z-index="1" transform="translate(8,3)"><path fill="none" d="M 0 13 L 16 13" class="highcharts-graph"></path><path fill="#ddd" d="M 8 17 A 4 4 0 1 1 8.003999999333336 16.99999800000017 Z" class="highcharts-point" opacity="1"></path><text x="21" style="color:#414141;cursor:pointer;font-size:14px;font-weight:normal;fill:#414141;" text-anchor="start" data-z-index="2" y="17">Other models</text></g><g class="highcharts-legend-item highcharts-line-series highcharts-color-undefined highcharts-series-3" data-z-index="1" transform="translate(141.2265625,3)"><path fill="none" d="M 0 13 L 16 13" class="highcharts-graph" stroke="#21ccc7" stroke-width="2"></path><path fill="#21ccc7" d="M 8 17 A 4 4 0 1 1 8.003999999333336 16.99999800000017 Z" class="highcharts-point" opacity="1"></path><text x="21" y="17" style="color:#414141;cursor:pointer;font-size:14px;font-weight:normal;fill:#414141;" text-anchor="start" data-z-index="2">Models with lowest MSE</text></g></g></g></g><g class="highcharts-axis-labels highcharts-xaxis-labels" data-z-index="7"><text x="89.045804398602" style="color:#666666;cursor:default;font-size:11px;fill:#666666;" text-anchor="middle" transform="translate(0,0)" y="293" opacity="1">Jan '21</text><text x="333.35944382613" style="color:#666666;cursor:default;font-size:11px;fill:#666666;" text-anchor="middle" transform="translate(0,0)" y="293" opacity="1">Jan '22</text><text x="577.67308325365" style="color:#666666;cursor:default;font-size:11px;fill:#666666;" text-anchor="middle" transform="translate(0,0)" y="293" opacity="1">Jan '23</text><text x="821.98672268117" style="color:#666666;cursor:default;font-size:11px;fill:#666666;" text-anchor="middle" transform="translate(0,0)" y="293" opacity="1">Jan '24</text><text x="210.19859545718" style="color:#666666;cursor:default;font-size:11px;fill:#666666;" text-anchor="middle" transform="translate(0,0)" y="293" opacity="1">Jul '21</text><text x="454.51223488471" style="color:#666666;cursor:default;font-size:11px;fill:#666666;" text-anchor="middle" transform="translate(0,0)" y="293" opacity="1">Jul '22</text><text x="698.82587431223" style="color:#666666;cursor:default;font-size:11px;fill:#666666;" text-anchor="middle" transform="translate(0,0)" y="293" opacity="1">Jul '23</text></g><g class="highcharts-axis-labels highcharts-yaxis-labels" data-z-index="7"><text x="51" style="color:#666666;cursor:default;font-size:11px;fill:#666666;" text-anchor="end" transform="translate(0,0)" y="279" opacity="1">0.2</text><text x="51" style="color:#666666;cursor:default;font-size:11px;fill:#666666;" text-anchor="end" transform="translate(0,0)" y="226" opacity="1">0.4</text><text x="51" style="color:#666666;cursor:default;font-size:11px;fill:#666666;" text-anchor="end" transform="translate(0,0)" y="173" opacity="1">0.6</text><text x="51" style="color:#666666;cursor:default;font-size:11px;fill:#666666;" text-anchor="end" transform="translate(0,0)" y="120" opacity="1">0.8</text><text x="51" style="color:#666666;cursor:default;font-size:11px;fill:#666666;" text-anchor="end" transform="translate(0,0)" y="67" opacity="1">1</text><text x="51" style="color:#666666;cursor:default;font-size:11px;fill:#666666;" text-anchor="end" transform="translate(0,0)" y="15" opacity="1">1.2</text></g><g class="highcharts-label highcharts-tooltip highcharts-color-undefined" style="cursor:default;white-space:nowrap;pointer-events:none;" data-z-index="8" transform="translate(188,-9999)" opacity="0" visibility="hidden"><path fill="none" class="highcharts-label-box highcharts-tooltip-box highcharts-shadow" d="M 3.5 0.5 L 60.5 0.5 L 66.5 -5.5 L 72.5 0.5 L 132 0.5 C 135.5 0.5 135.5 0.5 135.5 3.5 L 135.5 27.5 C 135.5 30.5 135.5 30.5 132.5 30.5 L 3.5 30.5 C 0.5 30.5 0.5 30.5 0.5 27.5 L 0.5 3.5 C 0.5 0.5 0.5 0.5 3.5 0.5" stroke="#000000" stroke-opacity="0.049999999999999996" stroke-width="5" transform="translate(1, 1)"></path><path fill="none" class="highcharts-label-box highcharts-tooltip-box highcharts-shadow" d="M 3.5 0.5 L 60.5 0.5 L 66.5 -5.5 L 72.5 0.5 L 132 0.5 C 135.5 0.5 135.5 0.5 135.5 3.5 L 135.5 27.5 C 135.5 30.5 135.5 30.5 132.5 30.5 L 3.5 30.5 C 0.5 30.5 0.5 30.5 0.5 27.5 L 0.5 3.5 C 0.5 0.5 0.5 0.5 3.5 0.5" stroke="#000000" stroke-opacity="0.09999999999999999" stroke-width="3" transform="translate(1, 1)"></path><path fill="none" class="highcharts-label-box highcharts-tooltip-box highcharts-shadow" d="M 3.5 0.5 L 60.5 0.5 L 66.5 -5.5 L 72.5 0.5 L 132 0.5 C 135.5 0.5 135.5 0.5 135.5 3.5 L 135.5 27.5 C 135.5 30.5 135.5 30.5 132.5 30.5 L 3.5 30.5 C 0.5 30.5 0.5 30.5 0.5 27.5 L 0.5 3.5 C 0.5 0.5 0.5 0.5 3.5 0.5" stroke="#000000" stroke-opacity="0.15" stroke-width="1" transform="translate(1, 1)"></path><path fill="rgba(247,247,247,0.85)" class="highcharts-label-box highcharts-tooltip-box" d="M 3.5 0.5 L 60.5 0.5 L 66.5 -5.5 L 72.5 0.5 L 132 0.5 C 135.5 0.5 135.5 0.5 135.5 3.5 L 135.5 27.5 C 135.5 30.5 135.5 30.5 132.5 30.5 L 3.5 30.5 C 0.5 30.5 0.5 30.5 0.5 27.5 L 0.5 3.5 C 0.5 0.5 0.5 0.5 3.5 0.5" stroke="#ddd" stroke-width="1"></path><text x="8" data-z-index="1" y="20" style="color:#333333;font-size:12px;fill:#333333;"><tspan style="font-weight:bold;">Transformer:</tspan> 1.108</text></g></svg>