<svg width="746" height="33" viewBox="0 0 746 33" fill="none" xmlns="http://www.w3.org/2000/svg">
<path d="M502.47 7.65003C502.75 8.43003 502.52 9.08998 501.73 9.22998C499.75 9.57998 497.75 9.89997 495.74 9.96997C491.37 10.11 486.99 10.08 482.97 10.12C481.9 10.91 482.02 11.42 483.01 11.61C484 11.8 485.02 11.84 486.03 11.84C523.56 11.97 561.1 12.05 598.63 12.24C602.67 12.26 606.71 12.77 610.73 13.26C615.45 13.83 620.14 14.14 624.87 13.27C626.85 12.91 628.92 12.52 630.9 12.71C648.77 14.43 666.68 14.07 684.58 14.12C686.57 14.13 688.56 14.53 690.54 14.82C690.69 14.84 690.88 15.37 690.87 15.65C690.86 15.94 690.7 16.39 690.48 16.47C689.25 16.94 687.97 17.74 686.74 17.67C683.03 17.46 679.37 17.1 675.72 18.32C674.5 18.7299 673.04 18.43 671.69 18.42C661.55 18.4 651.41 18.35 641.27 18.36C626.39 18.37 611.52 18.4199 596.64 18.4399C591.57 18.4499 586.52 18.59 581.47 19.29C577.8 19.8 574.06 19.85 570.35 19.88C543.98 20.09 517.6 20.2 491.23 20.42C483.13 20.49 475.04 20.57 466.93 21.37C458.89 22.17 450.74 21.97 442.64 22.01C404.09 22.16 365.54 22.19 327 22.36C310.77 22.43 294.54 22.83 278.31 22.88C261.4 22.92 244.5 22.66 227.59 22.63C203.92 22.59 180.25 22.5999 156.58 22.6899C152.2 22.7099 147.82 23.18 143.43 23.46C140.06 23.67 136.69 24.03 133.32 24.11C125.55 24.3 117.77 24.33 109.99 24.49C106.27 24.57 102.51 24.46 98.8502 25C90.1202 26.3 81.3302 26.36 72.5502 26.64C68.5002 26.77 64.47 27.2301 60.42 27.5501C49.98 28.3901 39.65 30.23 29.17 30.73C26.48 30.86 23.8102 31.51 21.1202 31.65C16.0702 31.92 11 32.13 5.94005 32.12C3.03005 32.12 1.08005 29.83 0.950055 26.78C0.820055 23.76 0.740016 20.73 0.660016 17.71C0.620016 16.19 1.49007 15.05 2.72007 14.48C4.54007 13.65 6.46003 12.8701 8.42003 12.5601C11.08 12.1401 13.8101 12.23 16.5101 12C21.2201 11.61 25.93 11.17 30.64 10.71C32.32 10.55 33.99 10.21 35.67 10.09C48.48 9.17997 61.2501 7.85003 74.0001 6.40003C78.6901 5.87003 83.45 5.96996 88.18 5.82996C96.96 5.57996 105.76 5.73002 114.48 4.27002C117.13 3.83002 119.87 3.94999 122.58 3.85999C133.72 3.51999 144.86 3.48003 156 2.40003C165.4 1.49003 174.92 1.60999 184.38 1.60999C219.55 1.59999 254.71 1.76004 289.88 1.79004C332.48 1.83004 375.09 1.83995 417.69 1.81995C431.55 1.80995 445.42 1.71005 459.28 1.55005C463.33 1.50005 467.37 1.10001 471.42 0.880008C473.1 0.790008 474.79 0.619964 476.47 0.709964C480.85 0.929964 485.23 1.49 489.6 1.5C493.62 1.51 497.64 0.959955 501.66 0.699955C501.9 0.679955 502.41 1.13002 502.37 1.27002C502.24 1.82002 502.07 2.67005 501.7 2.80005C500.45 3.24005 499.11 3.61004 497.79 3.66004C493.74 3.83004 489.68 3.79995 485.62 3.94995C484.3 3.99995 482.95 4.25002 481.69 4.64002C481.32 4.75002 481.13 5.64998 481.02 6.22998C480.98 6.42998 481.39 6.89996 481.65 6.95996C482.95 7.23996 484.37 7.82995 485.58 7.56995C491.27 6.36995 496.88 6.95003 502.47 7.65003ZM467.24 6.76001C466.99 6.58001 466.74 6.24999 466.49 6.23999C460.78 6.12999 455.07 6.04001 449.35 6.01001C448.07 6.00001 446.78 6.24001 445.38 6.38001C446.22 8.34001 447.76 7.87994 448.96 7.93994C451.71 8.05995 454.28 8.21 456.05 10.87C456.43 11.44 458.04 11.69 458.81 11.39C461.62 10.31 464.32 8.95003 467.03 7.65003C467.2 7.56003 467.17 7.06001 467.24 6.76001ZM411.8 6.46997C411 6.46997 410.34 6.42999 409.68 6.48999C409.38 6.51999 408.92 6.64999 408.83 6.85999C408.56 7.48999 408.98 7.85 409.86 8C410.84 8.16 411.8 8.45 412.77 8.62C413.61 8.77 414.12 8.41004 414.1 7.66004C414.09 7.40004 413.81 7.03006 413.57 6.93006C412.95 6.70006 412.3 6.58997 411.8 6.46997Z" fill="#353F44"/>
<path d="M552.65 0.0200732C561.09 0.0200732 569.53 0.010083 577.97 0.030083C581.35 0.040083 584.75 -0.00997555 587.9 1.47002C588.39 1.70002 588.64 2.46002 589 2.97002C588.72 3.15002 588.44 3.49005 588.15 3.50005C582.42 3.66005 576.69 3.88008 570.95 3.90008C556.09 3.95008 541.24 3.93006 526.38 3.88006C524.39 3.87006 522.39 3.54009 520.4 3.29009C520.13 3.26009 519.65 2.8201 519.69 2.6701C519.82 2.0801 520.02 1.12007 520.39 1.02007C521.98 0.570073 523.64 0.140059 525.28 0.130059C534.4 0.0500586 543.51 0.0900195 552.63 0.0900195C552.65 0.0600195 552.65 0.0400732 552.65 0.0200732Z" fill="#353F44"/>
<path d="M723.26 15.27C723.78 15.63 724.51 15.88 724.75 16.37C724.99 16.86 724.95 17.7501 724.63 18.1801C723.58 19.6101 722.05 20.0101 720.31 19.3001C719.89 19.1301 719.42 18.17 719.54 17.73C720.03 16.01 721.43 15.18 723.26 15.27Z" fill="#353F44"/>
<path d="M743.25 17.92C742.5 17.77 741.54 17.65 740.64 17.36C739.91 17.12 739.71 16.5 740.09 15.91C740.23 15.69 740.63 15.5 740.89 15.52C741.84 15.59 742.8 15.71 743.73 15.9C745.24 16.21 746.13 17.1799 745.28 17.4599C744.69 17.6599 744.06 17.74 743.25 17.92Z" fill="#353F44"/>
<path d="M603.94 1.00996C604.89 0.919964 605.74 0.67991 606.52 0.82991C606.85 0.88991 607.38 1.91992 607.23 2.20992C606.74 3.14992 605.74 3.24995 604.9 2.74995C604.49 2.49995 604.35 1.78996 603.94 1.00996Z" fill="#353F44"/>
<path d="M708.93 18.16C708.58 17.63 708.08 17.1499 707.93 16.5699C707.8 16.0699 707.88 15.3199 708.19 14.9399C708.71 14.2999 710.28 14.5999 710.63 15.4399C710.83 15.8999 710.72 16.69 710.42 17.09C710.08 17.55 709.38 17.7599 708.84 18.0699L708.93 18.16Z" fill="#353F44"/>
<path d="M542.32 7.44998C542.78 6.82998 543.36 6.68005 543.92 7.15005C544.1 7.30005 544.21 7.80002 544.09 7.99002C543.69 8.66002 543.08 8.78009 542.52 8.31009C542.34 8.16009 542.38 7.73998 542.32 7.44998Z" fill="#353F44"/>
<path d="M723.31 3.48995C723.01 3.43995 722.53 3.48002 722.43 3.31002C722.04 2.62002 722.38 2.23999 723.29 2.39999C723.55 2.43999 723.76 2.75002 723.99 2.93002C723.76 3.11002 723.54 3.29995 723.31 3.48995Z" fill="#353F44"/>
<path d="M675.6 3.13L674.97 2.91003L675.48 2.56995L675.6 3.13Z" fill="#353F44"/>
<path d="M734.21 3.31995L733.85 2.75L734.58 2.76001L734.21 3.31995Z" fill="#353F44"/>
<path d="M575.6 6.91003L576.25 6.70996L576.16 7.25L575.6 6.91003Z" fill="#353F44"/>
</svg>
