<svg width="555" height="92" viewBox="0 0 555 92" fill="none" xmlns="http://www.w3.org/2000/svg">
<path d="M33.9 88.1598C35.17 89.6598 36.1301 90.81 34.5301 91.32C31.9401 92.16 29.1301 92.13 27.0501 90.11C24.9601 88.08 22.6402 87.22 19.8602 87.54C15.9902 87.99 12.36 87.18 8.75005 85.85C1.91005 83.33 1.26997 82.6099 1.66997 75.0099C1.88997 70.8299 1.67012 66.73 1.32012 62.56C0.410117 51.61 -0.0800102 40.6299 1.93999 29.7199C2.30999 27.7299 3.60004 26.3498 5.49004 25.6498C6.55004 25.2598 7.67009 24.99 8.79009 24.83C11.7901 24.42 14.8001 23.98 17.8101 23.79C26.8801 23.21 35.9601 22.67 45.0401 22.29C47.6601 22.18 50.31 22.6998 52.95 22.8798C58.28 23.2398 63.5501 23.2699 68.5101 20.7599C71.6301 19.1799 75.03 18.83 78.46 18.81C82.63 18.78 86.8 18.7599 90.96 18.9199C99.69 19.2499 108.36 18.9399 116.99 17.4199C126 15.8399 135.13 16.37 144.21 16.34C168.45 16.25 192.69 16.32 216.92 16.3C219.57 16.3 222.24 16.3099 224.87 16.0199C238.84 14.5099 252.87 14.93 266.87 14.3C273.29 14.01 279.71 13.4299 286.11 12.7599C292.89 12.0499 299.66 11.53 306.5 11.57C318.24 11.63 329.99 10.7399 341.71 11.1699C354.66 11.6499 367.39 9.54984 380.25 9.15984C383.27 9.06984 386.3 9.10001 389.32 9.08001C394.62 9.06001 399.91 9.13 405.17 8.07C407.75 7.55 410.43 7.43003 413.08 7.35003C427.09 6.98003 441.1 6.56997 455.12 7.28997C461.17 7.59997 467.24 7.46983 473.3 7.64983C475.94 7.72983 478.61 7.91001 481.21 8.33001C483.91 8.77001 486.5 8.71989 489.03 7.70989C494.84 5.38989 500.73 5.04991 506.87 6.22991C513.39 7.47991 519.65 5.65991 525.81 3.72991C526.88 3.38991 527.86 2.73998 528.9 2.29998C536.63 -0.960021 542.52 1.05992 547.43 7.98992C551.21 13.3299 554.18 18.8499 554.7 25.9199C551.87 30.6199 548.81 35.69 545.71 40.84C549.36 43.07 551.45 45.85 550.65 50.31C550.41 51.66 551.42 53.1899 551.52 54.6699C551.61 56.1399 551.36 57.65 551.11 59.12C550.84 60.74 549.79 62.0599 548.23 62.2599C542.63 62.9799 537.15 64.08 531.34 63.62C519.66 62.69 507.92 62.1999 496.21 62.2199C480.31 62.2399 464.4 61.9399 448.53 63.52C442.51 64.1199 436.43 63.99 430.38 64.32C415.64 65.11 400.9 65.91 386.16 66.84C375.96 67.49 365.77 68.3798 355.57 69.1298C352.55 69.3498 349.51 69.65 346.49 69.55C339.26 69.29 332.12 70.06 324.96 70.86C320.46 71.36 315.9 71.4399 311.36 71.4699C303.78 71.5299 296.21 71.2998 288.63 71.3898C285.24 71.4298 281.83 71.81 278.47 72.33C274.68 72.92 271 73.09 267.22 72.12C262.79 70.98 258.22 70.9399 253.66 71.2299C243.84 71.8599 234.02 72.0499 224.2 73.2499C215.22 74.3499 206.05 73.96 196.96 74.07C189 74.17 181.07 74.3599 173.16 75.4999C169.05 76.0899 164.85 75.9599 160.69 76.2499C156.16 76.5699 151.63 76.9898 147.11 77.3998C142.88 77.7898 139.09 78.7698 136.36 82.6498C135 84.5898 132.23 84.4599 130 83.7499C128.23 83.1799 126.57 82.18 124.93 81.27C121.8 79.53 118.62 78.8299 115.14 80.2499C113.34 80.9799 111.4 81.0299 109.6 80.2399C103.04 77.3599 96.14 77.9699 89.44 78.9199C82.67 79.8799 75.9002 80.32 69.1102 80.8C66.8502 80.96 64.4802 80.9799 62.3602 81.6699C53.3702 84.6699 43.82 85.2498 33.9 88.1598ZM391.59 34.9799L391.46 34.85C392.59 34.8 392.93 34.53 392.38 34.29C392.25 34.23 391.86 34.7299 391.59 34.9799ZM371.16 37.12C374.31 39.38 377.89 39.95 381.63 39.57C382.18 39.51 383 38.7199 383.06 38.1899C383.12 37.6899 382.41 36.65 381.95 36.59C378.3 36.17 374.64 36.1199 371.06 37.2299C370.75 37.1199 370.43 37.0098 370.12 36.8998C370.47 36.9698 370.82 37.05 371.16 37.12ZM446.12 25.85C444.67 25.54 442.91 24.55 441.84 25.04C437.68 26.96 433.33 28.0999 428.92 29.2199C425.58 30.0699 422.61 31.7799 420.57 34.7299C420.39 34.9799 420.39 35.5 420.52 35.79C420.66 36.09 421.08 36.4799 421.36 36.4599C427.39 36.1099 433.44 37.2499 439.47 36.1899C440.94 35.9299 442.54 35.76 443.98 36.04C450.78 37.39 457.53 37.22 464.29 35.81C465.38 35.58 466.55 35.7199 467.69 35.6799C473.74 35.4599 479.83 35.5399 485.84 34.9299C492.23 34.2699 498.6 33.5699 505.04 33.4699C506.86 33.4399 508.7 32.6599 510.46 32.0099C510.99 31.8099 511.54 30.88 511.54 30.29C511.53 29.66 511.03 28.7899 510.48 28.4599C507.13 26.4399 503.34 25.8898 499.55 25.8998C491.6 25.9198 483.64 25.9399 475.71 26.4399C471.85 26.6799 468.21 26.72 464.56 25.36C463.2 24.85 461.22 24.2998 460.2 24.8998C456.46 27.0998 452.95 25.4799 449.31 25.0199C448.26 24.8899 447.11 25.4799 446.01 25.7399L446.12 25.85ZM200.68 42.32C200.68 44.55 201.7 45.5399 204.28 45.6799C220.53 46.5499 236.76 46.16 252.96 44.6C253.32 44.56 253.67 44.37 254.04 44.29C255.3 44.03 256.33 42.02 255.97 40.61C255.36 38.23 253.96 36.3299 251.59 35.9199C249.03 35.4899 246.32 35.47 243.74 35.78C240.38 36.19 237.1 37.3799 233.74 37.7299C229.24 38.1999 224.66 37.96 220.63 40.58C220.04 40.96 219.1 41.22 218.45 41.04C212.96 39.54 207.32 43.5498 201.85 40.6498C201.78 40.6098 201.08 41.73 200.68 42.32ZM494.86 38.1899C493.75 38.1899 490.69 37.8799 487.72 38.2499C477.55 39.4999 467.35 39.45 457.14 39.55C455.63 39.56 454.12 39.7399 452.63 39.9699C451.53 40.1399 450.53 40.5599 450.01 41.7099C449.66 42.4999 450.77 43.4798 452.22 43.6498C456.34 44.1398 460.48 44.5499 464.58 45.1899C467.63 45.6599 470.6 45.8399 473.52 44.6799C476.45 43.5199 479.43 43.6798 482.46 44.1498C484.32 44.4398 486.25 44.8598 488.09 44.6598C494.51 43.9598 500.9 43.8299 507.28 44.9799C507.63 45.0399 508.11 45.01 508.39 44.82C509.29 44.19 510.22 43.5599 510.96 42.7599C511.68 41.9799 511.09 40.2798 510.23 39.8798C505.88 37.8598 501.22 39.2699 494.86 38.1899ZM507.75 17.7199C506.62 17.2899 505.76 16.8598 504.85 16.6498C503.79 16.3898 502.32 16.49 502.06 15.29C501.68 13.56 500.96 12.6 499.16 12.58C498.41 12.57 497.66 12.57 496.91 12.53C485.62 11.97 474.44 13.0799 463.29 14.6899C462.68 14.7799 462.1 15.4098 461.62 15.8998C461.12 16.4298 462.55 17.8399 463.86 18.0099C466.08 18.3099 468.31 18.6899 470.55 18.7699C475.8 18.9799 481.05 19.16 486.3 19.12C493.05 19.07 499.8 18.79 506.54 18.58C506.83 18.56 507.09 18.1999 507.75 17.7199ZM499.72 23.1899C485.91 20.7399 484.52 20.7999 480.58 23.2199C485.53 23.2999 489.92 23.4099 494.31 23.4399C496.12 23.4499 497.92 23.2799 499.72 23.1899ZM432.06 43.4098C432.7 44.1998 433.03 45.0099 433.58 45.2199C435.75 46.0499 437.92 45.9099 439.65 44.1999C440 43.8499 440.07 42.6 439.76 42.3C438.06 40.69 435.95 40.06 433.78 41.11C432.99 41.5 432.59 42.6698 432.06 43.4098ZM374.07 48.09C376.21 49.32 378.35 48.18 380.47 48.02C381.88 47.91 383.26 47.28 384.63 46.81C384.89 46.72 385.24 46.0899 385.17 45.9799C384.82 45.4699 384.23 44.6199 383.91 44.6899C380.71 45.3999 377.55 46.2598 374.39 47.1298C374.21 47.1798 374.17 47.75 374.07 48.09ZM435.04 15.7199C435.64 16.0599 436.22 16.6599 436.83 16.6999C440.46 16.9099 444.1 17 447.74 17.07C448.01 17.08 448.41 16.6998 448.55 16.4098C448.92 15.6298 448.61 14.87 447.76 14.85C444.11 14.76 440.46 14.77 436.81 14.84C436.22 14.85 435.63 15.4099 435.04 15.7199ZM402.88 34.2399C403.21 34.8799 403.37 35.87 403.88 36.1C406.32 37.18 408.64 36.1599 409.27 33.7299C409.41 33.1799 408.95 32.05 408.47 31.83C406.34 30.85 403.72 32.0699 402.88 34.2399ZM259.12 23.04C258.19 23.23 257.1 23.3399 256.11 23.6999C255.51 23.9099 255.06 24.5099 254.54 24.9399C255.04 25.4199 255.47 26.04 256.06 26.34C257.68 27.17 259.44 27.6999 261.2 26.9299C261.74 26.6899 262.32 25.87 262.33 25.3C262.34 24.72 261.8 23.96 261.28 23.59C260.75 23.21 259.94 23.23 259.12 23.04ZM279.53 38.3998C278.83 38.5998 277.99 38.62 277.48 39.04C277.06 39.39 276.96 40.21 276.88 40.84C276.86 41.01 277.39 41.3799 277.71 41.4299C278.42 41.5499 279.21 41.7 279.88 41.52C280.51 41.35 281.18 40.88 281.58 40.35C282.11 39.62 280.8 38.3898 279.53 38.3998ZM79.24 31.59C77.43 31.44 76.44 31.23 75.48 31.33C74.96 31.39 74.49 31.99 74 32.35C74.58 32.57 75.2 33.0499 75.73 32.9599C76.67 32.7899 77.56 32.28 79.24 31.59ZM398 43.6498C397.69 43.4998 397.33 43.1899 397.07 43.2499C396.41 43.4099 395.75 43.67 395.16 44.02C394.94 44.15 394.77 44.6699 394.84 44.9599C395.01 45.7599 396.53 46.0298 397.65 45.3998C398.4 44.9798 398.47 44.3198 398 43.6498ZM482.41 49.7099C484.72 50.2399 485.61 50.4998 486.51 50.6298C486.77 50.6698 487.2 50.4099 487.34 50.1699C487.71 49.5099 487.38 48.8998 486.52 48.9098C485.62 48.8998 484.73 49.2299 482.41 49.7099ZM354.62 46.1C354.71 46.35 354.74 46.75 354.92 46.82C355.1 46.9 355.42 46.68 355.67 46.59C355.58 46.34 355.55 45.9501 355.37 45.87C355.2 45.79 354.88 46.01 354.62 46.1ZM242.83 53.86L242.16 54.04L242.66 54.3998L242.83 53.86ZM409.01 43.07L408.32 42.6498L408.22 43.32L409.01 43.07ZM467.44 49.4799L467.57 50.1L468.15 49.7199L467.44 49.4799Z" fill="#353F44"/>
<path d="M446.01 25.7399C445.65 26.6299 445.74 27.8201 444.45 28.0901C444.46 27.8001 444.35 27.39 444.5 27.23C444.99 26.72 445.58 26.3001 446.13 25.8501C446.12 25.8501 446.01 25.7399 446.01 25.7399Z" fill="#353F44"/>
</svg>
