<svg width="736" height="46" viewBox="0 0 736 46" fill="none" xmlns="http://www.w3.org/2000/svg">
<path d="M719.54 33.8998C718.7 34.5698 717.86 35.23 717.08 35.85C713.55 36.75 710.21 35.7699 706.84 35.2399C706.3 35.1599 706.06 34.82 706.21 34.34C706.26 34.17 706.5 34.0398 706.68 33.9398C707.03 33.7498 707.39 33.5899 708.12 33.2299C704.43 32.7899 701.23 31.6798 697.77 31.6998C695.16 31.7098 692.67 32.3799 690.11 32.5399C687.76 32.6899 685.53 31.6599 683.1 31.7999C675.82 32.2199 668.52 32.3099 661.23 32.7399C649.85 33.4099 638.47 33.0799 627.09 33.0299C618.5 32.9999 609.92 32.76 601.33 32.59C600.26 32.57 599.17 32.5598 598.12 32.3798C596.41 32.0798 594.72 32.03 593 32.33C591.95 32.52 590.86 32.62 589.8 32.58C581.21 32.23 572.63 32.5299 564.04 32.5099C562.54 32.5099 560.99 32.5498 559.56 32.1898C556.36 31.3898 553.2 31.4298 549.97 31.8998C548.72 32.0798 548.01 31.3099 547.88 30.0199C547.8 29.2599 547.24 28.9298 546.55 28.8798C545.67 28.8198 544.71 28.9198 544.48 29.9298C544.12 31.4598 543.04 32.1198 541.71 32.1798C538.29 32.3298 534.85 32.43 531.43 32.32C523.92 32.08 516.42 31.5698 508.91 31.3998C502.26 31.2498 495.61 31.4299 488.95 31.4599C485.3 31.4799 481.64 31.6998 478.04 30.8998C477.02 30.6698 475.94 30.4798 475.2 29.4498C475.69 28.5298 476.08 27.5298 476.7 26.6998C477.03 26.2498 477.75 25.78 478.27 25.81C489.21 26.29 500.15 25.9499 511.09 26.0299C518.82 26.0799 526.54 26.2999 534.27 26.2999C543.07 26.3099 551.88 26.02 560.68 26.11C574.85 26.25 589.02 25.7698 603.19 26.1298C613.49 26.3998 623.81 26.0599 634.11 26.0099C649.57 25.9399 665.03 25.84 680.5 25.83C687.16 25.82 693.81 26.01 700.47 26.06C703.25 26.08 706.03 25.9898 708.91 25.9498C708.74 25.5398 708.69 25.2298 708.58 25.1998C707.13 24.8198 705.67 24.4198 704.2 24.1498C702.09 23.7698 699.96 23.5298 697.85 23.1398C697.53 23.0798 697.13 22.6199 697.07 22.2899C697.02 21.9999 697.36 21.42 697.62 21.36C698.65 21.11 699.73 21.04 700.78 20.86C701.36 20.76 701.93 20.5699 703.12 20.2599C700.4 19.5799 698.24 19.8699 696.14 19.5499C695.52 19.4599 694.92 19.1898 694.35 18.9298C694.22 18.8698 694.13 18.55 694.14 18.35C694.15 18.17 694.3 17.85 694.42 17.84C695.24 17.73 696.1 17.5398 696.9 17.6598C699.28 18.0198 701.48 17.5798 703.94 16.6798C703.29 16.4098 702.96 16.1498 702.62 16.1498C695.54 16.1898 688.45 16.24 681.37 16.34C681.04 16.34 680.68 16.7299 680.4 16.9999C680.06 17.3199 680.95 18.0599 681.68 17.9999C682.53 17.9299 683.38 17.7699 684.23 17.7299C684.86 17.6999 685.52 17.7298 686.13 17.8798C686.49 17.9698 686.82 18.3298 687.09 18.6398C687.45 19.0398 687.16 19.97 686.61 20.33C683.49 22.35 680.04 23.3498 676.38 23.9298C670.19 24.9098 663.98 24.89 657.75 24.87C646.37 24.85 634.99 24.79 623.61 24.83C620.58 24.84 617.62 24.5999 614.7 23.7499C613.26 23.3299 611.76 23.15 610.29 22.86C608.58 22.52 606.91 22.52 605.22 23.11C604.46 23.38 603.49 23.4199 602.72 23.2099C598.69 22.0899 594.67 22.46 590.59 22.86C585.48 23.35 580.35 24.1299 575.22 22.9899C574.8 22.8999 574.35 22.77 573.95 22.84C569.25 23.66 564.54 22.5798 559.84 22.8998C558.57 22.9898 557.28 22.83 555.99 22.83C554.71 22.83 553.41 22.7999 552.14 22.9599C543.37 24.0899 534.57 23.79 525.79 23.33C524.29 23.25 522.82 23.17 521.31 23.32C516.6 23.79 511.9 23.8999 507.22 22.7899C505.78 22.4499 504.24 22.3998 502.75 22.4298C501.49 22.4598 500.24 22.8099 499.07 22.9999C498.64 22.5599 498.67 22.1798 499.16 21.9398C499.93 21.5598 500.77 21.3398 501.51 20.9198C501.77 20.7698 501.87 20.2598 501.94 19.8998C501.96 19.7798 501.71 19.5198 501.54 19.4498C499.09 18.4798 496.51 18.4599 493.94 18.4599C484.71 18.4699 475.48 18.5299 466.25 18.5399C460.02 18.5399 453.79 18.6498 447.57 18.3998C443.74 18.2498 439.93 17.5199 436.11 17.0199C435.97 16.9999 435.77 16.6699 435.79 16.4999C435.8 16.3399 436.04 16.09 436.21 16.07C437.26 15.93 438.32 15.7999 439.38 15.7599C441.95 15.6699 444.52 15.65 447.09 15.56C447.59 15.54 447.82 15.1498 447.7 14.6798C447.65 14.4998 447.46 14.2999 447.29 14.2199C446.9 14.0499 446.48 13.86 446.07 13.85C440.28 13.66 434.48 13.4 428.69 13.36C420.96 13.3 413.23 13.4099 405.5 13.4699C403.15 13.4899 400.79 13.48 398.72 14.59C398.51 15.13 398.69 15.4199 399.25 15.4799C400.32 15.5999 401.39 15.6599 402.46 15.7599C403.52 15.8699 404.14 16.3198 403.82 16.6798C403.56 16.9698 403.14 17.13 402.78 17.34C402.42 17.55 402.03 17.7199 401.71 17.9799C401.6 18.0699 401.59 18.3899 401.66 18.5499C401.73 18.7299 401.93 18.9799 402.08 18.9899C403.14 19.0499 404.21 19 405.26 19.11C405.6 19.15 405.98 19.53 406.21 19.85C406.49 20.25 406 21.2498 405.49 21.4298C404.89 21.6398 404.29 21.9699 403.68 22.0199C401.97 22.1599 400.25 22.2399 398.54 22.2499C392.31 22.3199 386.09 22.4098 379.86 22.3798C377.08 22.3598 374.3 22.09 371.53 21.86C371.29 21.84 370.9 21.2498 370.92 20.9498C370.94 20.6598 371.37 20.2598 371.69 20.1598C372.3 19.9798 372.96 19.9498 373.6 19.9098C378.54 19.6498 383.47 19.5099 388.4 19.9899C390.78 20.2199 393.11 20.1498 395.33 19.1698C395.45 19.1198 395.54 18.8098 395.52 18.6398C395.5 18.4798 395.33 18.2199 395.21 18.2099C394.58 18.1499 393.95 18.1198 393.32 18.1298C386.67 18.2298 380.01 18.3498 373.36 18.4398C372.73 18.4498 372.06 18.3498 371.46 18.1498C371.12 18.0298 370.75 17.6099 370.68 17.2699C370.62 16.9699 370.91 16.3299 371.14 16.2799C372.38 15.9999 373.65 15.8498 374.91 15.6498C375.45 15.5598 375.69 15.2399 375.53 14.7699C375.48 14.5999 375.22 14.3798 375.06 14.3798C371 14.5298 366.94 14.6998 362.88 14.8998C362.76 14.9098 362.65 15.1798 362.5 15.3798C363.38 15.9098 364.26 16.4199 365.11 16.9799C365.23 17.0599 365.28 17.3699 365.25 17.5499C365.22 17.7399 365.09 18.01 364.94 18.06C364.34 18.26 363.71 18.4799 363.09 18.5099C360.09 18.6599 357.09 18.7498 353.87 18.8798C354.82 19.7098 355.79 19.3398 356.66 19.4498C357.51 19.5598 358.38 19.4998 359.23 19.6298C361.14 19.8998 363.05 20.21 364.94 20.59C365.24 20.65 365.45 21.1298 365.7 21.4098C365.38 21.6598 365.09 22.07 364.75 22.12C361.99 22.52 359.21 22.8099 356.46 23.2199C355.48 23.3599 354.35 23.22 353.47 24.33C354.14 24.48 354.7 24.6999 355.26 24.7099C361.49 24.7799 367.71 24.86 373.94 24.86C383.17 24.86 392.4 24.8299 401.63 24.7299C407.21 24.6699 412.79 24.45 418.37 24.32C419.22 24.3 420.09 24.2998 420.94 24.4298C425.22 25.0698 429.5 24.9199 433.8 24.7799C436.59 24.6899 439.38 24.85 442.17 24.84C443.02 24.84 444.01 24.71 444.39 23.84C444.6 23.35 444.34 22.6499 444.26 22.0499C444.13 21.0599 444.59 20.24 445.36 20.07C445.99 19.93 446.61 19.6698 447.24 19.6698C452.82 19.7398 458.4 19.8499 463.98 19.9599C464.18 19.9599 464.45 20.0498 464.57 20.1998C464.81 20.5098 465.14 20.8999 465.12 21.2399C465.1 21.5899 464.78 22.1099 464.47 22.2099C463.9 22.3999 463.24 22.3898 462.62 22.3898C461.78 22.3898 460.82 22.04 460.11 22.33C458.35 23.06 456.83 22.7999 455.19 21.9799C453.3 21.0399 451.41 21.48 449.7 22.59C449.42 22.77 449.18 23.31 449.24 23.62C449.3 23.96 449.73 24.4499 450.03 24.4799C453.02 24.7399 456.01 24.9 459.01 25.11C460.09 25.19 461.36 25.2599 461.9 26.2499C463.16 28.5099 465.14 28.7999 467.39 28.7499C467.99 28.7399 468.59 29.0098 469.18 29.1898C469.23 29.2098 469.27 29.5698 469.19 29.6698C469.07 29.8198 468.84 29.9699 468.66 29.9699C463.94 30.0799 459.25 30.4799 454.51 30.2999C450.03 30.1299 445.48 29.8 441.1 31.32L441.15 31.37C440.96 31.28 440.77 31.11 440.57 31.1C435.47 30.75 430.43 30.0399 425.28 30.0199C416.29 29.9899 407.31 30.74 398.32 30.08C396.16 29.92 394.04 30.1999 392.01 30.9799C390.54 31.5499 389.1 31.5099 387.62 31.0499C382.49 29.4599 377.47 30.0599 372.58 31.9599C370.49 32.7699 368.39 32.96 366.29 32.36C363.54 31.57 360.83 31.36 358.06 32.08C357.65 32.19 357.18 32.2999 356.79 32.2099C352.68 31.2699 348.72 32.6098 344.69 32.9498C344.26 32.9898 343.83 33.17 343.42 33.12C340.44 32.82 337.51 32.9599 334.62 33.7699C334.03 33.9399 333.61 33.39 333.63 32.59C333.64 32.39 333.81 32.1899 333.82 31.9799C333.86 31.2099 333.36 30.8198 332.7 30.6698C331.62 30.4298 330.57 30.5799 329.63 31.2099C328.57 31.9299 327.6 32.8 326.46 33.35C325.74 33.69 324.79 33.65 323.95 33.62C323 33.59 322.52 32.85 322.12 32.06C321.65 31.13 320.82 31.09 319.93 31.31L319.98 31.37C316.7 29.89 313.18 31.45 309.85 30.6C307.52 30.98 305.16 31.2598 303.15 32.6598L303.21 32.61C301.34 33.43 299.57 33.52 297.72 32.36C294.1 30.1 290.16 29.4799 285.99 30.4699C284.5 30.8299 283.03 30.6599 281.53 30.5199C279.84 30.3699 278.12 30.4599 276.42 30.5099C274.46 30.5699 272.67 31.09 271.05 32.33C269.68 33.37 268.27 33.1298 267.02 31.8898C264.73 29.6298 261.95 30.01 259.18 30.58C258.83 30.65 258.36 31.0798 258.3 31.3998C257.98 33.2498 256.78 33.84 255.1 33.84C252.53 33.84 249.96 33.86 247.39 33.81C247.07 33.8 246.75 33.4399 246.43 33.2399C246.74 33.0199 247.01 32.73 247.35 32.61C247.74 32.47 248.2 32.4998 248.61 32.3998C248.78 32.3598 248.99 32.1899 249.05 32.0299C249.09 31.9199 248.94 31.61 248.83 31.59C246.33 31.09 243.83 30.2398 241.29 31.3998L241.36 31.33C240.58 32.88 239.36 33.4898 237.7 32.9298C234.68 31.9098 231.65 31 228.41 31.32L228.45 31.36C227.27 30.74 226.02 30.5099 224.71 30.7499C219.61 31.6599 214.5 31.5798 209.34 31.3998C204.65 31.2398 199.91 31.5999 195.22 32.0299C190.51 32.4599 185.82 32.7398 181.1 32.3898C180.03 32.3098 178.95 32.2099 177.9 32.2999C173.21 32.6999 168.52 33.16 163.83 33.6C163.19 33.66 162.53 33.8699 161.91 33.7699C155.06 32.6599 148.28 34.7098 141.42 34.1498C138.24 33.8898 134.98 34.2 131.8 34.59C124.53 35.48 117.24 34.9099 109.96 35.0499C108.04 35.0899 106.11 35.06 104.19 35.12C101.62 35.2 99.0499 35.4898 96.4799 35.3898C93.2399 35.2698 90.0599 35.4098 86.8999 36.1298C86.3099 36.2598 85.63 36.0899 85.01 35.9999C84.83 35.9699 84.56 35.75 84.55 35.59C84.52 35.22 84.4999 34.7499 84.6999 34.4699C84.9299 34.1499 85.37 33.92 85.76 33.81C88.03 33.14 90.3499 32.7498 92.7199 32.6798C95.2899 32.6098 97.8599 32.48 100.43 32.37C101.74 32.31 103.02 32.0799 103.9 30.9899C105.08 29.5199 106.64 29.0299 108.43 28.9899C112.29 28.8899 116.14 28.7898 120 28.6498C121.68 28.5898 123.42 28.96 125.06 28.07C124.17 27.13 123.05 27.4298 122.05 27.4298C118.19 27.4098 114.33 27.5199 110.48 27.4799C109.44 27.4699 108.38 27.1898 107.37 26.9098C107.17 26.8498 106.91 26.0698 107.04 25.8898C107.53 25.2198 108.06 24.4 108.77 24.12C109.94 23.66 111.25 23.5398 112.51 23.3798C113.07 23.3098 113.35 23.2 113.29 22.56C107.09 22.68 100.9 22.4899 94.7199 21.7799C92.1199 21.4799 89.6101 22.24 87.1101 22.84C85.1501 23.32 83.2899 23.19 81.4599 22.37C81.1399 21.88 80.8799 21.3298 80.4699 20.9398C80.2999 20.7798 79.7899 20.9499 79.4499 21.0299C79.3799 21.0499 79.3299 21.3899 79.3899 21.5299C79.4499 21.6899 79.63 21.8598 79.79 21.9098C80.36 22.0698 80.94 22.18 81.52 22.31C81.18 22.57 80.8699 22.97 80.49 23.06C77.15 23.79 73.7999 24.5098 70.4399 25.1398C66.8599 25.8098 63.2599 26.3599 59.6699 27.0299C59.0899 27.1399 58.57 27.56 58 27.86C58.34 28.23 58.6001 28.5099 58.8601 28.7999C59.4801 29.4999 59.5199 30.16 58.9499 30.33C58.1399 30.57 57.2899 30.7299 56.4799 30.9799C55.8499 31.1799 55.3899 32.0899 55.7099 32.4999C55.9499 32.8099 56.2999 33.1699 56.6499 33.2399C57.2699 33.3599 57.93 33.3299 58.56 33.2599C60.1 33.0899 61.5698 33.2598 62.8798 34.1398C64.7098 35.3798 66.7099 36.0299 68.9199 36.0199C69.0599 36.0199 69.35 36.3298 69.32 36.4098C69.18 36.7598 69.03 37.2898 68.76 37.3798C66.53 38.1298 64.3 38.9398 62.01 39.4498C59.89 39.9198 57.9099 40.63 55.9599 41.57C53.6399 42.68 51.2898 43.7398 48.8798 44.6598C46.1298 45.7098 43.41 45.7598 41.03 43.6298C39.5 42.2598 37.6299 41.7799 35.6699 41.7999C32.0199 41.8399 28.3699 41.9698 24.7299 42.1698C23.6799 42.2298 22.6498 42.6399 21.6298 42.9599C20.1998 43.3999 18.8001 43.94 17.3601 44.36C15.8901 44.79 14.4099 44.91 12.9799 44.12C11.6299 43.37 10.1298 43.23 8.62984 43.11C7.78984 43.04 6.85986 43.0298 6.14986 42.6498C5.26986 42.1898 6.22994 41.12 5.72994 40.37C4.65994 38.77 3.64989 37.1399 2.67989 35.4799C1.80989 33.9799 1.21001 32.4 1.30001 30.6C1.35001 29.54 1.43004 28.3798 1.08004 27.4098C-0.179962 23.9798 0.789853 20.6099 1.13985 17.2299C1.35985 15.1299 2.68008 13.7899 4.62008 12.9799C6.24008 12.2999 7.91986 12.09 9.64986 12.09C13.0799 12.09 16.5199 12.1599 19.9499 12.0499C26.3799 11.8399 32.8098 11.54 39.1298 10.09C40.9898 9.65998 42.9598 9.59992 44.8798 9.51992C50.4598 9.29992 56.0401 9.16987 61.6101 8.96987C63.3201 8.90987 65.03 8.70997 66.74 8.56997C69.31 8.35997 71.8699 8.13982 74.4299 7.91982C76.3499 7.75982 78.2699 7.57983 80.1899 7.42983C81.4699 7.32983 82.76 7.11983 84.03 7.17983C85.76 7.24983 87.4201 7.01986 89.1201 6.70986C91.8501 6.20986 94.6699 5.68997 97.4099 5.81997C103.67 6.11997 109.81 5.24988 116 4.72988C121.55 4.25988 127.14 4.14989 132.72 3.98989C137.01 3.86989 141.31 3.92983 145.6 3.92983C149.46 3.92983 153.32 3.93001 157.17 3.37001C159.07 3.09001 161.02 3.18001 162.95 3.12001C171.1 2.86001 179.26 2.67995 187.4 2.29995C190.19 2.16995 192.91 2.96987 195.74 2.46987C198.47 1.98987 201.28 1.88994 204.06 1.78994C208.56 1.62994 213.07 1.58993 217.58 1.52993C221.66 1.46993 225.71 1.10992 229.78 0.769917C234.69 0.349917 239.64 0.449819 244.58 0.419819C251.23 0.389819 257.89 0.459887 264.54 0.489887C264.97 0.489887 265.4 0.499878 265.83 0.479878C284.5 -0.290122 303.17 0.209809 321.84 0.409809C325.92 0.449809 329.99 0.409878 334.07 0.479878C337.93 0.539878 341.8 0.46979 345.63 1.13979C346.89 1.35979 348.22 1.43994 349.48 1.28994C354.63 0.679936 359.77 1.34979 364.91 1.38979C368.99 1.41979 373.07 1.37001 377.14 1.37001C378.86 1.37001 380.58 1.30981 382.29 1.40981C388.3 1.78981 394.29 1.50988 400.28 0.979878C401.77 0.849878 403.29 0.649936 404.77 0.789936C409.27 1.22994 413.75 1.12997 418.25 0.819965C418.89 0.779965 419.55 0.679917 420.18 0.769917C427.24 1.77992 434.31 0.769965 441.38 0.819965C442.24 0.829965 443.11 0.699936 443.95 0.789936C455.06 2.07994 466.24 1.54 477.37 2.11C478.65 2.17 479.95 2.07985 481.23 1.94985C483.84 1.66985 486.34 2.35997 488.89 2.56997C491.41 2.77997 494.04 1.92989 496.54 2.23989C503.4 3.08989 510.26 2.7799 517.12 2.7499C521.41 2.7299 525.7 2.86001 529.98 2.87001C536.85 2.88001 543.72 2.77998 550.58 2.82998C560.88 2.90998 571.17 3.06985 581.47 3.19985C581.68 3.19985 581.91 3.16986 582.11 3.20986C587.65 4.28986 593.22 3.89998 598.79 3.58998C600.5 3.49998 602.22 3.51998 603.91 3.32998C605.64 3.13998 607.34 3.07988 609.03 3.47988C611.15 3.97988 613.27 4.05979 615.42 3.63979C615.84 3.55979 616.28 3.46992 616.7 3.51992C623.57 4.34992 630.38 3.12989 637.21 2.98989C641.28 2.90989 645.37 3.11982 649.43 3.41982C651.8 3.58982 654.1 3.68996 656.47 3.30996C660.52 2.66996 664.59 2.76996 668.66 3.30996C671.2 3.63996 673.79 3.73995 676.36 3.79995C681.94 3.93995 687.52 3.97996 693.09 4.05996C693.3 4.05996 693.52 4.05998 693.73 4.08998C698.23 4.87998 702.69 4.67997 707.13 3.56997C708.36 3.25997 709.68 3.23984 710.97 3.18984C714.41 3.06984 717.82 2.84983 721.17 1.92983C723.1 1.39983 725 1.65989 726.75 2.73989C727.11 2.96989 727.51 3.13997 727.9 3.31997C733.74 6.01997 732.66 5.8498 734.65 11.1498C735.88 14.4398 735.28 17.48 732.4 19.82L732.47 19.7499C730.94 20.4599 729.42 21.1698 727.75 21.9398C727.91 22.4598 728.11 23.0398 728.25 23.6298C728.44 24.4098 728.15 24.9099 727.44 24.9899C726.59 25.0899 725.74 25.1198 724.81 25.1898C723.9 26.3198 725.68 26.84 725.45 27.85C725.27 28.67 725.38 29.5498 725.33 30.3998C725.25 31.7298 724.93 32.17 723.29 32.11C721.58 32.04 720.45 32.7699 719.48 34.0099L719.54 33.8998ZM510.64 19.7899C510.52 19.6699 510.43 19.5098 510.29 19.4298C510.19 19.3698 510.04 19.3898 509.91 19.3798C510.18 19.4998 510.44 19.6099 510.71 19.7299L510.64 19.7899ZM416.52 8.11C417.42 8.11 418.32 8.11 419.23 8.11C421.78 9.63 424.52 9.35988 427.27 8.97988C427.44 8.95988 427.64 8.77 427.73 8.61C427.81 8.47 427.78 8.10999 427.75 8.09999C426.33 7.81999 424.9 7.54995 423.48 7.29995C421.93 7.02995 420.55 7.57983 419.18 8.17983C418.31 7.51983 417.44 7.53983 416.58 8.17983C415.17 8.09983 413.85 7.23987 412.39 7.71987C412.21 7.77987 412.02 7.95001 411.95 8.12001C411.76 8.60001 411.96 8.92994 412.48 9.03994C413.95 9.32994 415.29 8.93 416.52 8.11ZM210.31 21.07C209.81 20.15 209.29 19.2199 208.13 18.9999C206.9 18.7699 205.63 18.56 204.52 19.33C204.28 19.49 204.12 20.1198 204.24 20.3798C204.71 21.4198 205.68 21.9898 206.75 21.8998C207.97 21.7898 209.15 21.3299 210.35 21.0199L210.31 21.07ZM232.27 19.4498C232.2 19.2198 232.13 18.9899 232.05 18.7699C226.49 18.7699 220.93 18.7599 215.36 18.7899C214.95 18.7899 214.45 18.9098 214.17 19.1698C213.94 19.3898 213.81 19.9399 213.91 20.2499C214.19 21.1099 214.86 21.6398 215.74 21.8798C217.03 22.2398 218.28 22.14 219.5 21.58C220.66 21.06 221.79 20.4699 222.98 20.0299C223.26 19.9299 223.85 20.1899 224.06 20.4699C224.27 20.7399 224.36 21.4 224.18 21.61C223.64 22.24 223.01 23.0598 222.3 23.1998C220.64 23.5398 218.9 23.6198 217.2 23.6298C211.41 23.6498 205.63 23.5799 199.85 24.0499C196.44 24.3199 193.02 24.6899 189.6 24.7899C184.03 24.9699 178.45 24.9899 172.88 25.0299C171.39 25.0399 169.9 24.8699 168.41 24.7499C168.25 24.7399 168.11 24.5198 167.96 24.3998C168.21 24.1098 168.4 23.68 168.72 23.56C170.14 23 171.63 23 173.15 23.12C175.93 23.33 178.71 23.4299 181.49 23.5199C182.57 23.5599 183.73 23.4298 184.49 22.6298C185.8 21.2598 187.4 20.9698 189.16 20.9298C191.5 20.8698 193.85 20.72 196.19 20.58C196.28 20.57 196.43 20.2099 196.39 20.0499C196.36 19.8799 196.13 19.62 196 19.62C191.52 19.82 187.04 19.9898 182.57 19.4098C181.95 19.3298 181.29 19.4999 180.65 19.5299C177.44 19.6899 174.23 19.8499 171.03 19.9899C168.68 20.0899 166.28 19.9099 163.97 20.2999C158.86 21.1599 153.74 21.22 148.59 21.08C147.75 21.06 146.86 21.0198 146.16 21.6698C146.79 22.4798 147.69 22.1598 148.49 22.1798C151.49 22.2598 154.49 22.2798 157.48 22.3798C158.09 22.3998 158.75 22.6198 159.28 22.9298C159.52 23.0698 159.69 23.8299 159.53 24.0499C158.83 25.0199 158 25.89 156.96 27.1C160.37 27.45 163.35 27.3 166.31 26.85C169.71 26.33 173.13 26.1598 176.56 26.1698C179.78 26.1798 182.99 26.1499 186.21 26.0499C194.76 25.7999 203.35 26.1899 211.86 24.9999C212.7 24.8799 213.57 24.9298 214.43 24.9098C219.36 24.8298 224.29 24.7698 229.22 24.6698C229.78 24.6598 230.33 24.4099 231.11 24.2199C230.49 23.8699 230.15 23.6399 229.78 23.4799C229.18 23.2199 228.64 22.8998 228.55 22.1798C228.45 21.4298 228.99 20.6299 229.94 20.2399C230.71 19.9499 231.5 19.7198 232.27 19.4498ZM519.16 20.81C544.24 21.01 568.03 20.6 591.82 21.06C593.32 21.09 594.82 20.9698 596.32 20.8798C596.92 20.8398 597.51 20.6999 598.79 20.4999C597.65 20.1199 597.12 19.9899 596.64 19.7599C596.3 19.5999 596.03 19.32 595.72 19.09C596.04 18.89 596.36 18.5299 596.68 18.5199C599.39 18.4699 602.27 17.6698 604.35 20.3998C604.65 20.7998 605.54 20.8798 606.15 20.8798C609.58 20.9098 613.01 20.88 616.43 20.82C616.74 20.82 617.05 20.4899 617.39 20.2999C615.98 19.3499 614.45 20.03 613.01 19.85C611.62 19.68 610.1 20.14 608.61 18.87C610.24 18.43 611.64 17.9298 613.08 17.6898C614.76 17.4098 616.48 17.3698 618.18 17.1898C619.62 17.0398 621.18 17.6998 622.76 16.4298C621.68 16.3398 620.85 16.2299 620.02 16.2199C615.09 16.1799 610.16 16.1498 605.23 16.1398C593.22 16.1098 581.22 16.09 569.21 16.07C568.57 16.07 567.93 16.1498 567.28 16.1598C566.67 16.1698 566.45 16.35 566.67 16.82C570 17.41 573.37 17.69 576.8 17.37C578.05 17.25 579.35 17.4598 580.61 17.6298C580.84 17.6598 581.17 18.28 581.13 18.6C581.1 18.94 580.72 19.4899 580.45 19.5199C578.76 19.7199 577.05 19.8998 575.35 19.8898C568.06 19.8698 560.76 19.5799 553.48 19.7899C545.54 20.0199 537.62 19.98 529.68 19.84C526.68 19.79 523.68 19.9199 520.68 19.9899C520.51 20.0199 520.32 20.2 519.16 20.81ZM254.17 23.2099C255.09 23.4299 255.3 23.5199 255.5 23.5199C272.65 23.7299 289.8 23.16 306.94 23.84C307.37 23.86 307.8 23.7599 308.22 23.7599C313.58 23.8099 318.93 23.8498 324.29 23.9298C326.21 23.9598 328.14 24.1 330.06 24.11C330.33 24.11 330.6 23.61 330.87 23.34C330.57 23.09 330.29 22.65 329.96 22.61C328.27 22.4 326.57 22.2998 324.87 22.1298C324.75 22.1198 324.57 21.8598 324.56 21.6998C324.55 21.5298 324.66 21.2598 324.8 21.1998C325.57 20.8498 326.39 20.6098 327.11 20.1798C327.37 20.0298 327.56 19.42 327.47 19.11C327.38 18.78 326.95 18.3299 326.63 18.2999C323.65 17.9999 320.67 17.63 317.68 17.57C310.82 17.43 303.96 17.3898 297.1 17.4098C286.17 17.4398 275.23 17.5498 264.3 17.6598C263.25 17.6698 262.19 17.8898 261.17 18.1598C260.92 18.2198 260.62 18.8598 260.67 19.1698C260.73 19.4998 261.22 20.0599 261.45 20.0199C263.33 19.7299 265.32 20.2799 267.09 19.2699C268.85 18.2599 270.78 18.26 272.72 18.37C274.86 18.5 277.02 18.9099 279.13 18.7299C284.28 18.2799 289.42 18.7199 294.55 18.4999C299.47 18.2999 304.38 19.1299 309.31 18.4799C310.54 18.3199 312 18.4198 313.09 18.9398C315.11 19.9098 317.1 20.1 319.25 19.86C319.44 19.84 319.89 20.4399 319.89 20.7599C319.9 21.1099 319.62 21.6399 319.31 21.7899C318.75 22.0699 318.09 22.2399 317.47 22.2499C312.97 22.3599 308.47 22.4699 303.97 22.4699C288.97 22.4699 273.96 22.4298 258.96 22.4098C257.5 22.4498 255.99 22.2199 254.17 23.2099ZM456.83 15.1598C457.49 16.0198 458.41 15.8199 459.21 15.7699C462.65 15.5699 466.06 15.6699 469.46 16.2899C470.93 16.5599 472.44 16.6699 473.93 16.7599C474.55 16.7999 475.2 16.6399 475.82 16.5099C475.99 16.4799 476.27 16.22 476.25 16.11C476.2 15.77 476.06 15.1698 475.9 15.1498C469.71 14.4798 463.51 14.4699 457.3 14.7499C457.14 14.7699 456.99 15.0298 456.83 15.1598ZM489.06 14.7599C489.06 14.8299 489.05 14.8899 489.05 14.9599C487.37 14.9599 485.69 14.9199 484.01 14.9899C483.68 14.9999 483.35 15.3998 483.06 15.6598C482.71 15.9798 483.44 16.7798 484.18 16.8998C487.54 17.4498 490.87 17.1498 494.19 16.6298C494.34 16.6098 494.5 16.3698 494.57 16.1998C494.75 15.7098 494.57 15.2599 494.06 15.2099C492.4 15.0099 490.73 14.8999 489.06 14.7599ZM502.05 15.6698C503.9 16.0098 505.73 16.4798 507.6 16.6498C509.03 16.7798 510.5 16.5398 511.95 16.4298C512.05 16.4198 512.21 16.1399 512.21 15.9799C512.21 15.8099 512.09 15.5199 511.97 15.4799C508.69 14.4499 505.35 14.6998 502.05 15.6698ZM20.9599 35.9098C21.1199 36.0498 21.2599 36.2799 21.4199 36.2999C23.4999 36.4899 25.5699 36.6599 27.6499 36.7999C28.0599 36.8299 28.5098 36.78 28.8798 36.62C29.4298 36.38 29.9399 36.0198 30.4299 35.6598C30.5399 35.5798 30.55 35.27 30.5 35.11C30.45 34.95 30.2801 34.7898 30.1201 34.6998C29.9501 34.6098 29.72 34.54 29.53 34.56C26.84 34.87 24.1499 35.1899 21.4599 35.5299C21.2999 35.5499 21.1499 35.7498 20.9599 35.9098ZM598.63 10.1598C599.55 10.9098 600.66 10.49 601.67 10.62C602.51 10.73 603.36 10.8098 604.21 10.9098C605.26 11.0298 606.32 11.2099 607.37 11.2599C607.75 11.2799 608.16 11.03 608.53 10.84C608.66 10.77 608.76 10.5 608.75 10.34C608.74 10.17 608.59 9.89978 608.46 9.87978C605.73 9.26978 602.96 9.84982 600.21 9.66982C599.66 9.62982 599.01 9.50981 598.63 10.1598ZM339.27 24.6898C340.02 24.5798 340.49 24.6298 340.83 24.4298C341.14 24.2498 341.34 23.8299 341.51 23.4799C341.57 23.3399 341.45 23.0398 341.32 22.8998C340.15 21.5598 338.16 21.63 336.96 23.09C336.81 23.27 336.99 24.04 337.18 24.12C337.94 24.42 338.77 24.5598 339.27 24.6898ZM141.13 26.9298C148.57 27.6398 148.57 27.6399 150.68 26.4799C147.74 26.4799 144.98 26.4599 142.22 26.4999C141.86 26.5099 141.49 26.7798 141.13 26.9298ZM510.1 28.2999C503.99 27.5299 503.99 27.5299 501.68 28.5499C504.72 28.9499 507.4 28.5499 510.1 28.2999ZM337.12 18.9198C341.78 19.9298 341.78 19.9298 345.52 18.9498C342.56 18.2698 339.87 18.6298 337.12 18.9198ZM387.04 15.9198C388.11 15.7398 389.14 15.58 390.17 15.37C390.31 15.34 390.47 15.05 390.48 14.86C390.49 14.68 390.33 14.33 390.24 14.33C388.35 14.31 386.47 14.33 384.58 14.37C384.41 14.37 384.2 14.5599 384.1 14.7199C384.02 14.8599 384.03 15.2399 384.06 15.2499C385.05 15.4899 386.05 15.6998 387.04 15.9198ZM519.36 16.4799C520.5 16.7199 521.09 16.9398 521.68 16.9498C523.34 16.9898 524.99 16.9398 526.65 16.8998C526.8 16.8998 526.94 16.68 527.08 16.56C526.94 16.42 526.8 16.1698 526.65 16.1598C525 16.0898 523.34 16.0199 521.68 16.0299C521.09 16.0399 520.5 16.2499 519.36 16.4799ZM550.67 16.2899C550.91 16.6399 550.99 16.8998 551.13 16.9198C552.54 17.2298 553.95 17.5399 555.38 17.7399C555.69 17.7799 556.05 17.3798 556.39 17.1798C556.16 16.8798 555.95 16.34 555.7 16.33C554.08 16.25 552.44 16.2899 550.67 16.2899ZM498.42 9.86C499.39 9.92 499.81 10.0198 500.19 9.93984C500.53 9.86984 500.83 9.59982 501.15 9.41982C500.86 9.16982 500.58 8.74987 500.26 8.71987C499.28 8.61987 498.29 8.65984 497.3 8.68984C497.18 8.68984 497 8.96979 496.99 9.13979C496.97 9.29979 497.1 9.59978 497.22 9.62978C497.79 9.77978 498.39 9.85 498.42 9.86ZM252.54 18.7699C251.09 18.7699 249.64 18.7599 248.18 18.7899C248.09 18.7899 248 19.0399 247.88 19.2299C249.52 19.7299 251.12 19.6299 252.54 18.7699ZM133.6 26.9699C133.35 26.6899 133.11 26.1798 132.85 26.1698C132.54 26.1598 132.05 26.5 131.93 26.81C131.82 27.09 131.99 27.68 132.24 27.86C132.74 28.2 133.52 27.6399 133.6 26.9699ZM448.63 8.09999C448.44 8.13999 447.83 8.23979 447.23 8.38979C446.73 8.51979 446.54 8.87997 446.72 9.31997C446.78 9.46996 447.06 9.65979 447.2 9.63979C448 9.49979 448.8 9.32 449.58 9.11C449.73 9.07 449.91 8.8098 449.9 8.6498C449.9 8.1998 449.57 7.99999 448.63 8.09999ZM575.46 28.6798C575.52 29.2698 576.19 29.5399 576.88 29.2299C577.33 29.0299 577.52 28.6199 577.22 28.2899C576.99 28.0399 576.5 27.8798 576.18 27.9398C575.9 27.9998 575.69 28.4198 575.46 28.6798ZM438.42 7.88979C438.39 8.37979 438.63 8.69988 439.14 8.72988C439.32 8.73988 439.57 8.61988 439.69 8.47988C440.03 8.06988 439.95 7.6099 439.45 7.4999C439.15 7.4299 438.77 7.74979 438.42 7.88979ZM208.74 27.7299C208.26 27.7299 207.68 27.7099 207.09 27.7399C206.91 27.7499 206.65 27.8098 206.57 27.9398C206.37 28.2598 206.6 28.4899 207.14 28.5199C207.72 28.5499 208.31 28.5599 208.9 28.5199C209.04 28.5099 209.17 28.2798 209.31 28.1498C209.16 28.0398 209 27.9299 208.74 27.7299ZM536.41 16.9298C536.71 16.9298 536.92 16.9598 537.11 16.9198C537.29 16.8798 537.57 16.7898 537.6 16.6698C537.69 16.2798 537.41 16.0998 536.88 16.1298C536.68 16.1398 536.48 16.09 536.28 16.12C535.9 16.19 535.53 16.2998 535.16 16.3998C535.36 17.1898 536.05 16.7998 536.41 16.9298ZM126.83 23.3798C127.18 23.2598 127.69 23.2299 127.83 22.9899C128 22.6899 127.6 22.4599 127.09 22.4899C126.7 22.5099 126.31 22.5099 125.92 22.4999C125.4 22.4799 125.12 22.6499 125.18 23.0299C125.2 23.1399 125.49 23.2499 125.66 23.2799C126.05 23.3499 126.44 23.3498 126.83 23.3798ZM379.12 27.4599C379.6 27.4299 379.81 27.4198 380.02 27.3998C380.56 27.3398 380.81 27.0898 380.66 26.6798C380.61 26.5398 380.34 26.4498 380.16 26.3998C379.97 26.3398 379.74 26.31 379.55 26.35C378.97 26.49 378.41 26.67 377.83 26.84C378.32 27.08 378.83 27.3199 379.12 27.4599ZM484.87 9.23989C484.84 9.71989 485.07 10.03 485.56 10.07C485.73 10.08 485.98 9.94996 486.09 9.80996C486.42 9.40996 486.35 8.95999 485.87 8.84999C485.58 8.77999 485.21 9.09989 484.87 9.23989ZM346.89 24.5499C347.07 24.4799 347.35 24.45 347.43 24.32C347.66 23.91 347.45 23.6099 346.9 23.5199C346.31 23.4199 345.61 23.2699 345.78 24.2299C345.81 24.3899 346.5 24.4399 346.89 24.5499ZM689.03 10.35C689.19 10.35 689.39 10.37 689.57 10.34C689.75 10.31 689.92 10.2298 690.09 10.1698C689.81 10.0498 689.54 9.83998 689.26 9.83998C688.99 9.83998 688.73 10.0598 688.46 10.1798C688.65 10.2398 688.83 10.29 689.03 10.35ZM287.89 20.2599C287.49 20.1699 287.09 20.0399 286.69 20.0099C286.52 19.9999 286.34 20.1899 286.16 20.2999C286.27 20.4399 286.36 20.6899 286.48 20.7099C286.89 20.7599 287.32 20.7499 287.73 20.7099C287.79 20.6999 287.83 20.4199 287.89 20.2599ZM511.54 9.90981C511.72 9.82981 511.99 9.7898 512.05 9.6498C512.26 9.2198 512.07 8.88997 511.55 8.81997C511.39 8.79996 511.1 8.91996 511.04 9.05996C510.83 9.48996 511.03 9.78981 511.54 9.90981ZM441.91 27.11C442.09 27.14 442.41 27.0598 442.46 26.9498C442.64 26.5098 442.38 26.2598 441.81 26.3798C441.45 26.4498 441.12 26.67 440.78 26.82C441.16 26.92 441.53 27.05 441.91 27.11ZM198.61 28.31C199.31 28.28 199.4 28.1098 198.85 27.8798C198.7 27.8198 198.47 27.9599 198.27 27.9999C198.38 28.1099 198.49 28.21 198.61 28.31ZM628.34 16.7999C628.28 16.9799 628.14 17.2 628.19 17.34C628.25 17.5 628.51 17.6898 628.66 17.6798C629.25 17.6198 629.35 17.2998 628.92 16.8798C628.81 16.7698 628.54 16.8199 628.34 16.7999ZM560.89 9.71987C560.74 9.27987 560.42 9.11998 559.99 9.33998C559.86 9.39999 559.73 9.67998 559.76 9.82998C559.86 10.27 560.21 10.4199 560.65 10.2099C560.77 10.1399 560.81 9.87987 560.89 9.71987ZM476.04 9.6498C476.21 9.7498 476.39 9.93982 476.55 9.91982C476.73 9.89982 477 9.70996 477.02 9.55996C477.12 8.96996 476.82 8.77999 476.29 9.09999C476.15 9.18999 476.12 9.4698 476.04 9.6498ZM433.2 9.55996C433.15 9.36996 433.15 9.07992 433.03 9.01992C432.88 8.93992 432.57 8.97999 432.45 9.08998C432 9.51999 432.11 9.84981 432.71 9.90981C432.86 9.91981 433.04 9.67996 433.2 9.55996ZM492.04 27.9699L491.78 28.34H492.28L492.04 27.9699ZM423.3 26.8798C423.43 26.9898 423.56 27.1698 423.7 27.1698C423.83 27.1698 423.97 26.9898 424.1 26.8798C423.97 26.7798 423.84 26.59 423.71 26.59C423.57 26.59 423.44 26.7798 423.3 26.8798ZM412.24 27.1798L412.52 27.57L412.74 27.1398L412.24 27.1798Z" fill="#353F44"/>
<path d="M643.11 34.8702C643.74 34.8302 644.38 34.7901 645.01 34.7601C645.55 34.7401 645.84 35.0001 645.79 35.5101C645.77 35.6801 645.57 35.9601 645.43 35.9701C643.97 36.0701 642.51 36.14 641.06 36.19C640.91 36.19 640.61 35.8802 640.62 35.8502C640.79 35.5402 640.96 35.0801 641.23 35.0101C641.83 34.8501 642.48 34.8802 643.11 34.8402C643.11 34.8402 643.11 34.8602 643.11 34.8702Z" fill="#353F44"/>
<path d="M97.0199 25.8301C94.8899 26.4101 92.87 26.4701 90.83 26.0501C90.68 26.0201 90.4799 25.7301 90.4999 25.5801C90.5099 25.4201 90.7498 25.1499 90.8998 25.1499C92.7498 25.1299 94.6099 25.15 96.4599 25.19C96.5899 25.18 96.7199 25.4701 97.0199 25.8301Z" fill="#353F44"/>
<path d="M428.72 21.3C427.92 21.06 426.96 20.78 426.01 20.45C425.9 20.41 425.81 20.0999 425.83 19.9299C425.85 19.7599 426.03 19.48 426.13 19.48C427.12 19.56 428.12 19.6301 429.1 19.8101C429.95 19.9701 430.54 20.79 430.02 20.96C429.66 21.08 429.28 21.15 428.72 21.3Z" fill="#353F44"/>
<path d="M689.2 33.78C689.63 33.87 690.25 33.9799 690.85 34.1599C690.98 34.1999 691.15 34.4899 691.12 34.6299C691.09 34.7999 690.87 35.03 690.72 35.05C689.89 35.15 689.06 35.25 688.23 35.21C687.94 35.19 687.66 34.77 687.38 34.54C687.72 34.33 688.04 34.0899 688.39 33.9099C688.56 33.8099 688.8 33.83 689.2 33.78Z" fill="#353F44"/>
<path d="M628.44 34.6499C628.64 34.6999 628.89 34.68 629.04 34.8C629.35 35.0401 629.6 35.3499 629.87 35.6299C629.57 35.8399 629.28 36.08 628.95 36.24C628.78 36.32 628.54 36.26 628.33 36.23C627.41 36.12 626.84 35.4501 627.34 35.1001C627.66 34.8701 628.08 34.7899 628.44 34.6499Z" fill="#353F44"/>
<path d="M227.06 32.6499C225.57 33.6299 223.94 33.94 222.12 33.73C222.61 32.81 222.61 32.8099 227.1 32.6899C227.11 32.6999 227.06 32.6499 227.06 32.6499Z" fill="#353F44"/>
<path d="M476.78 21.6699C477.07 21.2799 477.53 20.9 478 20.76C478.41 20.64 478.73 21.08 478.59 21.53C478.4 22.14 477.69 22.48 477.17 22.27C477.02 22.21 476.7 21.7799 476.78 21.6699Z" fill="#353F44"/>
<path d="M428.26 17.0399C427.16 17.0599 426.53 16.6798 426.9 16.4498C427.36 16.1598 427.97 16.1099 428.52 15.9999C428.7 15.9599 428.92 16.02 429.11 16.09C429.29 16.15 429.56 16.2498 429.59 16.3798C429.68 16.7898 429.39 16.9999 428.87 16.9899C428.66 16.9999 428.46 17.0299 428.26 17.0399Z" fill="#353F44"/>
<path d="M435.22 21.5802C434.73 21.6902 434.33 21.5001 434.37 21.0301C434.39 20.7201 434.7 20.32 434.99 20.18C435.42 19.96 435.87 20.2301 435.83 20.7001C435.81 21.0001 435.43 21.2802 435.22 21.5802Z" fill="#353F44"/>
<path d="M719.46 33.99C720.09 34.08 720.75 34.0801 721.32 34.3101C721.59 34.4201 721.72 34.9701 721.82 35.3501C721.85 35.4601 721.57 35.78 721.42 35.78C721.02 35.8 720.42 35.8501 720.26 35.6201C719.91 35.1301 719.77 34.4799 719.55 33.8999C719.54 33.8999 719.46 33.99 719.46 33.99Z" fill="#353F44"/>
<path d="M676.21 34.74C676.28 34.58 676.37 34.28 676.42 34.28C676.79 34.31 677.16 34.41 677.52 34.48C677.44 34.64 677.36 34.9299 677.29 34.9199C676.94 34.9099 676.58 34.81 676.21 34.74Z" fill="#353F44"/>
<path d="M659.14 35.04C658.84 34.89 658.54 34.7401 658.24 34.6001C658.38 34.4901 658.51 34.32 658.67 34.27C658.84 34.22 659.06 34.23 659.22 34.3C659.37 34.37 659.46 34.5599 659.57 34.6899C659.43 34.8099 659.29 34.92 659.14 35.04Z" fill="#353F44"/>
<path d="M696.82 34.4199L697.3 34.5901L696.91 34.8401L696.82 34.4199Z" fill="#353F44"/>
<path d="M487.13 22.98L486.64 23.1299L486.7 22.73L487.13 22.98Z" fill="#353F44"/>
<path d="M664.87 34.79L664.4 34.6299L664.78 34.3899L664.87 34.79Z" fill="#353F44"/>
<path d="M467.89 26.6599C467.87 26.8099 467.91 27.0201 467.83 27.1001C467.73 27.1901 467.48 27.2399 467.37 27.1799C466.92 26.9399 466.95 26.67 467.44 26.51C467.56 26.47 467.74 26.6099 467.89 26.6599Z" fill="#353F44"/>
<path d="M418.82 16.5601L418.32 16.73L418.38 16.29L418.82 16.5601Z" fill="#353F44"/>
<path d="M413.61 16.5901L413.18 16.71L413.24 16.3601L413.61 16.5901Z" fill="#353F44"/>
<path d="M411.84 21.6001L412.28 21.47L412.22 21.8401L411.84 21.6001Z" fill="#353F44"/>
<path d="M303.11 32.6798C303.11 32.6798 303.17 32.6198 303.17 32.6298C303.17 32.6398 303.11 32.6798 303.11 32.6798Z" fill="#353F44"/>
<path d="M228.38 31.3301C227.94 31.7701 227.5 32.2099 227.06 32.6499L227.1 32.6899C227.54 32.2499 227.98 31.8101 228.41 31.3701C228.42 31.3801 228.38 31.3301 228.38 31.3301Z" fill="#353F44"/>
<path d="M181.36 21.98L181.1 21.5901L181.62 21.6001L181.36 21.98Z" fill="#353F44"/>
<path d="M589.57 19.09C589.7 18.98 589.83 18.7899 589.96 18.7999C590.09 18.7999 590.21 18.99 590.34 19.1C590.21 19.21 590.08 19.3998 589.95 19.3898C589.82 19.3898 589.69 19.2 589.57 19.09Z" fill="#353F44"/>
</svg>
