<svg width="726" height="76" viewBox="0 0 726 76" fill="none" xmlns="http://www.w3.org/2000/svg">
<path d="M653.43 23.65C657.19 25.5 660.97 26.56 665.25 25.22C669.71 23.82 673.75 24.86 677.48 27.85C681.29 30.91 685.77 31.79 690.57 30.45L690.45 30.5699C693.04 31.0899 694.68 33.2099 696.84 34.4399C697.67 34.9099 697.96 36.29 698.58 37.2C699.16 38.06 699.98 38.11 701.45 37.27C703.4 36.15 703.67 36.2 704.35 38.4C704.9 40.17 705.63 41.47 707.29 42.12C708.84 42.73 710.5 43.0699 712.04 43.6899C716.44 45.4399 720.81 47.26 725.18 49.08C725.37 49.16 725.58 49.6101 725.52 49.8101C725.37 50.3001 725.17 50.84 724.82 51.17C724.43 51.54 723.87 51.86 723.36 51.92C718.1 52.48 712.85 53.0799 707.57 53.4399C705.96 53.5499 704.27 53.0799 702.66 52.6899C696.95 51.3199 691.21 50.16 685.37 49.53C684.62 49.45 683.8 49.86 683.04 50.12C682.92 50.16 682.82 50.72 682.93 50.85C683.26 51.24 683.66 51.65 684.12 51.83C688.04 53.38 692.19 54.03 696.27 54.96C700.61 55.96 705.04 56.74 708.92 59.13C709.09 59.23 709.17 59.62 709.15 59.86C709.13 60.07 708.96 60.32 708.79 60.47C708.59 60.64 708.31 60.8 708.05 60.83C702.73 61.33 697.47 61.24 692.48 58.95C691.72 58.6 691.03 58.04 690.24 57.84C684.03 56.24 677.8 54.6799 671.57 53.1899C671.18 53.0999 670.56 53.57 670.19 53.92C669.7 54.39 669.85 55.93 670.31 56.22C670.77 56.51 671.19 56.93 671.69 57.08C675.69 58.28 679.62 59.67 683.81 60.22C693.6 61.51 702.6 65.4 711.68 69.01C712.69 69.41 713.56 70.18 714.46 70.83C714.63 70.96 714.7 71.35 714.67 71.6C714.64 71.82 714.46 72.15 714.27 72.21C713.49 72.46 712.69 72.79 711.89 72.79C709.6 72.79 707.46 73.23 705.5 74.47C703.76 75.57 701.81 75.85 699.85 75.4C696.59 74.65 693.37 73.77 690.14 72.9C688.8 72.54 687.52 71.8601 686.17 71.6801C675.63 70.2701 665.35 67.54 654.94 65.47C639.04 62.3 623.03 59.86 606.99 57.53C594.82 55.77 582.59 54.5999 570.4 53.0699C568.74 52.8599 567.06 52.77 565.39 52.64C551.18 51.55 536.98 50.44 522.77 49.39C513.02 48.66 503.27 48.0099 493.52 47.3199C493.24 47.2999 492.96 47.31 492.68 47.27C480.48 45.58 468.17 45.53 455.91 44.67C450.34 44.28 444.75 44.0101 439.16 43.9301C425.47 43.7201 411.78 43.68 398.09 43.51C393.34 43.45 388.6 43.24 383.85 43.08C382.73 43.04 381.59 42.76 380.51 42.91C372.97 43.95 365.44 42.71 357.92 42.9C350.38 43.1 342.85 43.57 335.31 43.74C326.37 43.94 317.43 43.91 308.5 44.03C304.87 44.08 301.23 44.12 297.62 44.37C287.02 45.11 276.42 45.36 265.79 45.45C253.5 45.5499 241.21 45.69 228.95 46.85C218.94 47.8 208.88 48.2 198.87 49.13C189.98 49.96 181.08 50.67 172.22 51.91C163.65 53.1 155.02 53.85 146.41 54.84C139.48 55.64 132.56 56.52 125.64 57.35C114.82 58.65 104 59.93 93.1898 61.25C83.2098 62.47 73.2298 63.7299 63.2498 64.95C49.6298 66.61 36.4099 70.19 23.0999 73.36C22.0099 73.62 20.94 73.94 19.87 74.25C15.77 75.43 11.6696 75.89 7.5096 74.45C6.4696 74.09 5.2998 74.14 4.2098 73.89C1.4798 73.27 -0.570027 70.06 0.639973 67.39C1.79997 64.84 1.54007 62.69 0.740071 60.22C0.240071 58.67 0.0196799 56.84 0.33968 55.27C1.26968 50.6 -0.69993 45.7699 1.24007 41.1899C1.56007 40.4299 2.01982 39.61 1.97982 38.83C1.74982 34.26 4.13974 32.6099 8.39974 31.8199C19.6597 29.7399 30.8296 27.2 42.0496 24.9C56.0196 22.03 70.1399 20.25 84.3299 18.87C88.7799 18.44 93.21 17.89 97.66 17.5C103.49 16.99 109.35 16.73 115.15 15.8C117.9 15.36 120.68 15.06 123.45 14.74C126.78 14.35 130.1 13.83 133.44 13.7C139.33 13.47 145.12 12.6 150.86 11.4C155.85 10.37 160.79 10.0201 165.83 10.9301C169.45 11.5901 172.97 11.53 176.39 9.65002C178.63 8.41002 181.25 8.52001 183.78 8.76001C186.8 9.88001 186.8 9.89 189.26 8.87C186.95 8.87 185.32 8.87 183.68 8.87C185.06 7.84 186.61 7.19 188.33 7.25C190.55 7.34 192.8 7.37997 194.96 7.83997C197.72 8.42997 200.45 8.54004 203.26 8.54004C206.84 8.53004 210.5 8.13004 213.94 9.79004C214.55 10.09 215.86 9.91996 216.29 9.45996C218.43 7.11996 221.24 7.12 224.01 6.87C225.12 6.77 226.25 6.78995 227.34 6.56995C228.13 6.40995 229.03 6.12998 229.59 5.59998C231.13 4.10998 233 3.76001 234.99 3.76001C241.1 3.78001 247.24 2.73001 253.31 4.39001C255.22 4.91001 257.22 4.71003 259.02 3.78003C261.6 2.45003 264.37 2.29 267.16 2.25C270.5 2.21 273.85 2.21999 277.19 2.23999C278.34 2.24999 279.34 2.55003 279.84 3.78003C280.37 5.11003 281.56 4.96 282.67 4.87C282.94 4.85 283.28 4.81002 283.47 4.65002C285.97 2.39002 288.83 2.18005 292.04 2.68005C294.75 3.10005 297.55 2.92001 300.47 3.01001C300.68 3.25001 301.08 3.61995 301.37 4.06995C302.05 5.14995 303.07 5.52997 304.21 5.21997C305.27 4.92997 306.28 4.41005 307.28 3.93005C311.03 2.15005 314.88 2.35994 318.72 3.43994C319.35 3.61994 319.9 4.50995 320.23 5.19995C320.62 6.00995 321.08 6.55995 321.97 6.69995C323.94 6.98995 325.9 6.95999 327.64 5.85999C332.77 2.62999 338.32 3.34001 343.88 4.01001C344.15 4.04001 344.5 4.12006 344.65 4.31006C347.17 7.54006 350.75 6.33004 353.98 6.54004C355.48 6.64004 356.62 5.97998 357.6 4.84998C358.57 3.73998 359.95 3.38003 361.36 3.28003C363.03 3.16003 364.72 3.30005 366.36 3.05005C367.7 2.84005 368.98 2.22003 370.29 1.78003L370.2 1.88C372.67 1.61 375.15 1.33996 377.52 1.07996C379.46 1.89996 379.35 3.81999 380.09 5.23999C380.52 6.06999 382.27 6.56996 383 5.95996C383.84 5.26996 384.62 4.49995 385.35 3.69995C386.93 1.95995 388.89 0.999941 391.22 0.939941C393.71 0.879941 396.19 0.930054 398.59 0.930054C398.91 1.81005 397.35 2.51999 398.4 2.98999C399.91 3.66999 401.55 3.83998 402.12 5.84998C402.34 6.61998 404.54 6.75997 405.11 6.21997C405.5 5.84997 405.8 5.37996 406.14 4.95996C408.33 2.15996 411.22 0.769985 414.74 0.609985C415.02 0.599985 415.3 0.569946 415.57 0.569946C423.35 0.639946 431.12 0.699956 438.9 0.829956C439.46 0.839956 439.47 1.52995 438.99 2.06995C438.82 2.25995 438.73 2.52005 438.43 3.05005C439.65 3.10005 440.72 3.22004 441.78 3.17004C446.49 2.97004 451.19 2.26994 455.91 3.18994C456.95 3.38994 458.16 3.23004 459.19 2.92004C462.47 1.94004 465.81 2.21999 469.14 2.23999C470.55 2.24999 471.91 2.48998 473.02 3.47998C474.59 4.86998 476.51 5.22999 478.48 5.10999C482.4 4.86999 486.21 5.27003 490.02 6.28003C491.16 6.58003 492.87 6.90997 493.33 4.83997C493.4 4.50997 494.17 4.13999 494.64 4.10999C496.3 3.98999 497.97 3.95999 499.64 3.98999C501.64 4.01999 503.59 4.51001 504.97 6.01001C507.09 8.31001 509.7 8.76003 512.59 8.41003C513.92 8.25003 515.22 8.35005 516.57 7.68005C521.07 5.46005 521.11 5.57001 523.83 7.51001C524.5 7.99001 525.27 8.31998 525.99 8.72998C526.43 9.04998 526.83 9.44003 527.31 9.66003C528.02 9.98003 528.42 9.71999 528.25 9.10999C528.21 8.94999 527.78 8.83995 527.53 8.81995C526.99 8.78995 526.44 8.82997 525.9 8.83997C527.31 7.91997 528.79 7.14998 530.51 7.09998C531.9 7.05998 533.3 7.01002 534.67 7.15002C536.57 7.34002 538.56 6.67997 540.37 7.71997C539.83 9.15997 539.93 9.97998 540.64 9.97998C541.75 9.96998 542.9 10.1501 543.96 9.93005C547.63 9.17005 551.11 9.57003 554.55 11.03C556.06 11.67 557.72 11.97 559.14 12.37C559.66 13.05 559.48 13.4499 558.71 13.5699C556.31 13.9399 553.91 14.27 551.56 15.17C552.93 15.17 554.31 15.2 555.68 15.17C561 15.04 566.18 15.6399 571.27 17.3199C573.34 17.9999 575.62 18.19 577.82 18.35C579.81 18.5 581.77 18.0399 583.03 16.3199C585.63 12.7799 589.17 11.92 593.32 12.29C594.92 12.43 595.96 12.72 595.64 14.6C597.04 15.45 598.44 16.31 599.84 17.16C599.31 17.16 598.75 17.0299 598.27 17.1899C597.83 17.3299 597.19 17.74 597.16 18.08C597.12 18.47 597.58 18.9999 597.95 19.3199C598.34 19.6499 598.86 19.92 599.36 20C599.82 20.08 600.51 20.02 600.75 19.73C600.95 19.49 600.74 18.79 600.56 18.36C600.36 17.88 599.99 17.47 599.69 17.03C600.21 16.84 600.82 16.7599 601.24 16.4399C606.31 12.5499 611.64 13.4901 617.02 15.5601C617.36 15.6901 617.74 16.4401 617.66 16.8101C617.52 17.4601 617.45 18.1 618.06 18.22C619.41 18.5 620.8 18.6 622.18 18.73C624.97 19 626.77 20.27 627.39 23.2C627.71 24.72 629.23 25.24 630.64 25.39C634.5 25.81 638.37 26.1699 642.24 26.4399C643 26.4899 644.2 26.27 644.51 25.75C646.32 22.74 649.01 22.93 651.85 23.4C652.4 23.49 652.93 23.64 653.48 23.77L653.43 23.65ZM438.97 30.5L438.87 30.4C439.39 30.39 439.9 30.41 440.42 30.38C441.19 30.34 441.41 30.02 440.97 29.58C440.86 29.47 440.45 29.54 440.24 29.65C439.8 29.89 439.39 30.21 438.97 30.5ZM257.98 25.15C259.29 26.25 260.73 26.8799 262.49 26.4399C264.07 26.0399 265.66 25.68 267.23 25.26C267.44 25.2 267.59 24.89 267.76 24.7C267.41 24.39 267.08 23.8601 266.7 23.8101C263.63 23.4101 260.84 24.82 257.89 25.27C257.13 25.11 256.36 24.85 255.6 24.84C254.89 24.83 254.67 25.33 255.05 25.84C255.16 25.99 255.55 26.04 255.77 25.97C256.52 25.74 257.25 25.43 257.98 25.15ZM96.8797 40.66C96.6297 40.67 96.3697 40.64 96.1497 40.72C95.9797 40.78 95.8498 40.97 95.7098 41.11C96.0698 40.92 96.4296 40.74 96.7996 40.55C98.1996 40.62 99.5998 40.58 100.98 40.77C104.06 41.18 107 41.23 110 39.99C112.88 38.8 116.04 38.83 119.1 39.41C122.68 40.1 126.27 38.5201 129.82 39.55C133.94 38.98 137.84 37.24 142.05 37.17C146.63 34.77 151.66 34.5 156.65 33.96C158.3 33.78 159.93 33.43 161.56 33.1C161.7 33.07 161.89 32.42 161.82 32.37C161.42 32.07 160.91 31.6 160.5 31.65C154.4 32.34 148.32 33.23 142.22 33.83C130.83 34.96 119.55 36.87 108.16 37.99C105.39 38.26 102.63 38.78 99.8997 39.34C98.8497 39.56 97.8897 40.21 96.8797 40.66ZM586.3 44.04C587.49 43.26 588.79 42.84 590.21 43C592.13 43.21 594.03 43.6199 595.95 43.6899C597.29 43.7399 598.65 43.37 599.99 43.14C600.19 43.11 600.41 42.8 600.49 42.58C600.57 42.35 600.6 41.9699 600.47 41.8199C598.91 40.0799 596.9 39.24 594.6 39.39C592.41 39.53 590.23 40 588.04 40.12C586.26 40.22 584.85 39.29 583.94 37.78C583.52 37.09 583.36 36.24 583.08 35.47C585.03 35.4 587 35.14 588.93 35.3C594.49 35.7701 600.11 36.0499 605.58 37.0699C615.19 38.8499 624.98 39.4501 634.51 41.6801C635.04 41.8001 635.62 41.76 636.18 41.76C636.46 41.76 636.81 41.76 636.99 41.6C637.36 41.29 637.9 40.85 637.87 40.49C637.84 40.08 637.34 39.41 636.96 39.35C632.28 38.57 627.6 37.8701 623.02 36.5601C621.74 36.1901 620.25 36.38 618.88 36.49C616.61 36.68 614.48 36.34 612.29 35.7C606.69 34.06 600.68 34.43 595.15 32.34C594.9 32.25 594.6 32.3099 594.32 32.3199C588.98 32.5199 583.77 31.39 578.55 30.61C574.37 29.99 570.26 29.65 566.05 30.22C564.42 30.44 562.64 30.54 561.09 30.12C557.26 29.07 553.42 28.82 549.49 28.88C547 28.92 544.5 28.4499 542 28.1899C539.78 27.9599 537.56 27.48 535.35 27.53C530.03 27.65 524.76 27.28 519.49 26.73C516.16 26.38 512.82 26.15 509.47 25.95C508.68 25.9 507.86 26.18 507.07 26.38C506.9 26.42 506.71 26.77 506.69 26.98C506.67 27.23 506.78 27.7 506.91 27.73C508.53 28.07 510.15 28.51 511.79 28.63C528.76 29.82 545.71 31.38 562.72 32.04C564.11 32.09 565.49 32.37 566.87 32.55C570.19 32.98 573.5 33.4601 576.83 33.8101C579.07 34.0501 581.26 34.36 583.21 35.6C579.34 35.82 575.38 35.62 571.62 36.39C567.7 37.2 564.02 37.59 560.21 36.1C558.38 35.39 556.39 35.3201 554.49 35.9301C554.1 36.0501 553.83 36.69 553.6 37.14C553.51 37.31 553.65 37.69 553.81 37.87C554.16 38.28 554.55 38.71 555 38.98C557.23 40.34 559.62 40.71 562.2 40.23C565.56 39.61 569.01 39.65 571.88 41.54C574.63 43.35 577.49 43.75 580.57 43.79C582.51 43.81 584.45 43.8899 586.4 43.9399C586.63 43.9999 586.86 44.05 587.09 44.11C586.83 44.09 586.56 44.07 586.3 44.04ZM323.24 25.47L323.14 25.36C324.76 25.01 326.38 24.37 328.01 24.37C331.06 24.37 334.13 24.65 337.17 25.01C338.88 25.21 340.47 25.1301 342.12 24.6801C343.17 24.3901 344.34 24.15 345.39 24.33C347.65 24.7 349.82 24.33 352.04 24.05C353.67 23.84 355.36 24.06 357.03 24.1C358.69 24.14 360.36 24.36 362 24.2C363.76 24.03 365.28 24.4799 366.83 25.1899C367.89 25.6799 368.98 25.61 369.97 24.87C371.39 23.83 373 23.5 374.72 23.66C378.05 23.97 381.38 24.3 384.71 24.59C386.09 24.71 387.58 25.14 388.84 24.8C392.19 23.89 395.43 24.05 398.76 24.76C399.82 24.99 401.01 24.8801 402.09 24.6801C408.72 23.4601 415.42 23.62 422.11 23.64C432.15 23.67 442.19 23.78 452.23 23.86C452.95 24.11 453.66 24.38 454.38 24.59C454.61 24.66 454.9 24.62 455.12 24.53C455.31 24.45 455.43 24.2299 455.58 24.0699C455.18 23.9099 454.78 23.61 454.39 23.62C453.63 23.64 452.88 23.84 452.13 23.97C451.66 23.67 451.23 23.25 450.72 23.08C445.88 21.45 440.93 20.83 435.87 21.7C433.64 22.08 431.49 22.14 429.23 21.71C427.34 21.35 425.33 21.42 423.39 21.55C418.63 21.87 413.93 21.67 409.2 20.89C405.34 20.26 401.41 20.06 397.58 21.3C395.12 22.1 392.68 21.97 390.16 21.37C385.76 20.33 381.31 20.29 376.86 21.25C375.51 21.54 374.04 21.88 372.73 21.65C369.95 21.16 367.15 21.5 364.41 21.17C355.48 20.11 346.58 21.17 337.69 21.55C332.12 21.79 326.55 22.28 320.96 22.35C319.87 22.36 318.78 22.63 317.7 22.84C317.54 22.87 317.34 23.2399 317.35 23.4399C317.37 23.6499 317.59 23.99 317.77 24.02C319.63 24.35 321.73 23.76 323.24 25.47ZM207.17 28.09C215.17 29.68 222.16 30.34 227.82 29.97C229.21 29.88 230.67 29.87 231.95 29.41C236.46 27.77 241.13 27.1101 245.88 26.8101C246.13 26.7901 246.39 26.61 246.6 26.45C246.82 26.28 247.16 26 247.13 25.84C247.02 25.36 246.85 24.6 246.53 24.5C245.49 24.17 244.36 23.88 243.29 23.95C237.75 24.31 232.23 25.29 226.64 24.59C226.1 24.52 225.53 24.66 224.98 24.74C219.2 25.64 213.43 26.54 207.66 27.47C207.47 27.51 207.33 27.88 207.17 28.09ZM631.35 45.71C630.1 45.85 629.55 45.87 629.01 45.99C628.34 46.13 628.05 46.56 628.24 47.13C628.32 47.37 628.5 47.67 628.7 47.75C629.71 48.16 630.72 48.63 631.78 48.85C642.07 50.94 652.45 52.58 662.59 55.4C662.84 55.47 663.16 55.42 663.41 55.34C663.66 55.26 663.95 55.11 664.07 54.9C664.17 54.73 664.16 54.3499 664.03 54.1899C662.53 52.4199 660.45 51.47 658.29 51.21C651.94 50.44 645.87 48.5101 639.66 47.1801C636.69 46.5401 633.68 46.11 631.35 45.71ZM295.59 25.22C299.26 26.09 303.94 25.08 308.63 24.84C309.17 24.81 309.78 24.73 310.21 24.45C310.58 24.2 310.99 23.59 310.92 23.22C310.85 22.83 310.2 22.21 309.87 22.25C303.57 22.97 297.15 21.86 290.9 23.54C289.36 23.95 287.61 23.68 285.97 23.59C282.93 23.42 279.89 23 276.9 23.92C276.68 23.99 276.37 24.21 276.34 24.4C276.23 25.01 276.62 25.3 277.28 25.48C279.16 25.99 281.02 26.48 282.99 25.92C286.78 24.82 290.67 25.02 295.59 25.22ZM543.45 38.6C544.04 38.6 545.15 38.6901 546.24 38.5601C546.69 38.5101 547.32 38.05 547.43 37.66C547.54 37.26 547.23 36.45 546.87 36.27C544.36 34.98 541.71 34.2201 538.87 34.9301C536.65 35.4901 534.48 35.39 532.31 34.72C531.79 34.56 531.21 34.53 530.66 34.55C530.12 34.57 529.58 34.69 529.06 34.85C528.84 34.92 528.62 35.17 528.52 35.39C528.42 35.61 528.37 36 528.5 36.15C530.58 38.56 532.83 40.35 536.38 39.14C538.46 38.43 540.68 38.07 543.45 38.6ZM170.48 31.36C170.96 31.53 171.44 31.86 171.92 31.86C173.86 31.84 175.85 31.9801 177.72 31.5601C182.1 30.5801 186.5 30.4699 190.94 30.5699C191.22 30.5799 191.5 30.57 191.77 30.53C192.04 30.49 192.37 30.46 192.56 30.3C192.95 29.94 193.34 29.5399 193.6 29.0699C193.96 28.3999 193.14 27.44 192.27 27.55C185.96 28.31 179.65 29.06 173.35 29.91C172.28 30.05 171.1 30.25 170.48 31.36ZM615.85 41.74C614.97 42.08 613.69 42.54 612.44 43.08C611.73 43.38 611.69 44.74 612.31 45.23C614.36 46.87 616.57 47.76 619.22 46.9C619.84 46.7 620.39 45.4001 620.08 44.8101C619.28 43.2501 618.08 42.2 615.85 41.74ZM511.17 33.05C510.4 33.1 509.81 33.02 509.3 33.2C508.85 33.36 508.49 33.79 508.1 34.1C508.46 34.44 508.79 35.04 509.19 35.09C513.34 35.6 517.5 36.0199 521.65 36.4399C521.89 36.4599 522.26 36.28 522.38 36.08C522.63 35.64 522.81 35.14 522.9 34.64C522.93 34.45 522.66 34.02 522.49 34.01C518.65 33.66 514.8 33.35 511.17 33.05ZM353.77 32.8C358.74 30.61 358.74 30.61 359.77 29.12C356.43 28.5 353.17 28.39 349.43 29.36C351.11 30.68 352.48 31.77 353.77 32.8ZM473.97 23.95C471.51 23.55 469.06 23.1 466.58 22.79C465.78 22.69 464.93 22.91 464.11 23.05C463.87 23.09 463.59 23.35 463.49 23.58C463.22 24.23 463.47 24.6799 464.14 24.8199C467.45 25.5199 470.77 25.11 473.97 23.95ZM644.74 43.16C647.39 44.21 650.03 44.61 652.74 44.65C653.09 44.66 653.7 44.0501 653.73 43.6801C653.77 43.2601 653.41 42.62 653.03 42.38C650.81 40.98 648.45 40.52 646 41.76C645.56 41.98 645.29 42.53 644.74 43.16ZM428.46 2.59998C427.99 2.37998 427.52 1.95997 427.06 1.96997C423.51 2.00997 419.95 2.11999 416.4 2.23999C416.16 2.24999 415.94 2.49 415.71 2.62C416.17 2.85 416.64 3.28003 417.1 3.28003C420.65 3.24003 424.21 3.12 427.76 3C428 2.99 428.23 2.73998 428.46 2.59998ZM674.16 46.83C673.38 46.93 672.85 46.95 672.36 47.1C672.18 47.15 672.01 47.48 671.97 47.71C671.93 47.94 671.99 48.2801 672.15 48.4301C673.58 49.9201 675.33 50.49 677.33 49.91C677.69 49.81 677.93 49.15 678.11 48.71C678.17 48.57 677.93 48.15 677.75 48.08C676.48 47.6 675.21 47.19 674.16 46.83ZM392.56 29.26C390.11 28.85 388.17 28.0601 386.01 28.1801C385.79 28.1901 385.38 28.54 385.41 28.66C385.51 29.14 385.61 29.82 385.95 30.02C388.01 31.25 390.09 31.3 392.56 29.26ZM494.2 26.24C495.98 27.47 497.75 27.55 499.59 26.83C499.75 26.77 499.92 26.4 499.88 26.22C499.83 26 499.59 25.71 499.38 25.66C497.6 25.17 495.84 24.9 494.2 26.24ZM663.36 45.15C663.21 44.55 662.78 44.22 662.22 44.49C661.85 44.67 661.43 45.16 661.41 45.53C661.37 46.11 661.94 46.47 662.49 46.21C662.87 46.04 663.08 45.51 663.36 45.15ZM485.74 26.13C486.17 26.24 486.66 26.53 487.02 26.41C487.55 26.24 487.56 25.71 487.12 25.3C486.97 25.16 486.58 25.06 486.49 25.14C486.19 25.42 485.98 25.79 485.74 26.13ZM331.71 29.28C331.02 29.19 330.67 29.4201 330.83 29.9301C330.88 30.0801 331.24 30.17 331.47 30.21C332.15 30.34 332.5 30.08 332.34 29.54C332.31 29.41 331.94 29.36 331.71 29.28ZM423.51 29.24C423.29 29.38 423.07 29.52 422.85 29.66C423.03 29.84 423.18 30.0901 423.4 30.1801C423.63 30.2801 423.94 30.29 424.18 30.22C424.42 30.16 424.61 29.95 424.83 29.8C424.39 29.62 423.95 29.43 423.51 29.24ZM199.28 28.41C199.31 28.65 199.24 28.99 199.37 29.1C199.81 29.47 200.29 29.35 200.61 28.8C200.7 28.64 200.66 28.23 200.52 28.12C200.07 27.74 199.63 27.88 199.28 28.41ZM339.11 29.41L338.83 29.78L339.38 29.8L339.11 29.41ZM656.16 27.7C655.98 27.81 655.8 27.92 655.62 28.02C655.97 28.47 656.33 28.47 656.69 28.03C656.51 27.92 656.34 27.81 656.16 27.7ZM191.1 12.72L191.72 13.0601L191.82 12.5601L191.1 12.72ZM404.32 29.21C404.14 29.36 403.96 29.5 403.78 29.65C403.93 29.82 404.05 30.11 404.23 30.15C404.87 30.3 405.15 30.0101 404.94 29.4301C404.89 29.3001 404.53 29.28 404.32 29.21ZM48.7699 46.28L49.2098 46.53L49.3099 46.1801L48.7699 46.28Z" fill="#353F44"/>
<path d="M370.34 1.79008C368.74 1.79008 367.14 1.79008 365.08 1.79008C367.18 0.84008 367.18 0.840056 370.24 1.89006C370.25 1.89006 370.34 1.79008 370.34 1.79008Z" fill="#353F44"/>
<path d="M653.52 23.76C654.51 22.88 655.59 22.22 656.99 22.52C657.18 22.56 657.4 22.7899 657.47 22.9899C657.52 23.1299 657.33 23.4999 657.23 23.4999C655.96 23.5799 654.69 23.61 653.42 23.65C653.43 23.65 653.52 23.76 653.52 23.76Z" fill="#353F44"/>
<path d="M578.51 15.5699L578 15.09L578.62 14.91L578.51 15.5699Z" fill="#353F44"/>
<path d="M690.58 30.4399L690.27 30.3L690.46 30.5601L690.58 30.4399Z" fill="#353F44"/>
</svg>
